<svg width="16" height="16" viewBox="0 0 16 16" fill="none" xmlns="http://www.w3.org/2000/svg">
<path d="M15.575 7.59995C15.575 7.73328 15.554 7.85828 15.512 7.97495C15.4707 8.09162 15.4 8.19995 15.3 8.29995L8.7 14.9C8.5 15.1 8.26233 15.2 7.987 15.2C7.71233 15.2 7.475 15.1 7.275 14.9C7.075 14.7 6.975 14.4666 6.975 14.2C6.975 13.9333 7.075 13.7 7.275 13.5L12.175 8.59995L0.975 8.59995C0.691666 8.59995 0.458333 8.50395 0.275 8.31195C0.0916664 8.12062 -3.19822e-07 7.88328 -3.32207e-07 7.59995C-3.44591e-07 7.31662 0.0956665 7.07895 0.287 6.88695C0.479 6.69562 0.716666 6.59995 1 6.59995L12.175 6.59995L7.275 1.69995C7.075 1.49995 6.975 1.26662 6.975 0.99995C6.975 0.733284 7.075 0.499951 7.275 0.299951C7.475 0.0999514 7.71233 -4.99282e-05 7.987 -4.99402e-05C8.26233 -4.99522e-05 8.5 0.0999514 8.7 0.299951L15.3 6.89995C15.4 6.99995 15.4707 7.10828 15.512 7.22495C15.554 7.34162 15.575 7.46662 15.575 7.59995Z" fill="white"/>
</svg>
