<svg width="16" height="16" viewBox="0 0 16 16" fill="none" xmlns="http://www.w3.org/2000/svg">
<path d="M3.8751 6.89847C3.94281 6.89847 4.01833 6.90888 4.10166 6.92971C4.18499 6.95055 4.26832 6.97919 4.35165 7.01565C4.43499 7.05211 4.51832 7.08596 4.60165 7.11721C4.68498 7.14846 4.7605 7.17971 4.8282 7.21096L4.70321 7.22658C4.66154 7.23179 4.61727 7.23439 4.5704 7.23439C4.48186 7.23439 4.40113 7.22137 4.32822 7.19533C4.2553 7.16929 4.1876 7.13544 4.1251 7.09377C4.0626 7.05211 4.0001 7.02086 3.9376 7.00002C3.8751 6.97919 3.81781 6.96357 3.76573 6.95315C3.71365 6.95315 3.66678 6.96357 3.62511 6.9844C3.58344 7.00523 3.54178 7.02867 3.50011 7.05471C3.50011 7.03388 3.48188 7.02346 3.44543 7.02346C3.48188 6.987 3.54959 6.95836 3.64855 6.93753C3.7475 6.91669 3.82302 6.90367 3.8751 6.89847ZM4.92976 7.25002C5.1433 7.25002 5.33861 7.28648 5.51569 7.35939C5.44277 7.38543 5.36986 7.40626 5.29694 7.42189C5.22403 7.43751 5.14851 7.44793 5.07039 7.45314C4.96622 7.45314 4.87247 7.44272 4.78914 7.42189C4.81518 7.38022 4.84122 7.35418 4.86727 7.34377C4.89331 7.33335 4.91414 7.3021 4.92976 7.25002ZM8 0.000200316C8.73436 0.000200316 9.44007 0.0965521 10.1171 0.289256C10.7942 0.481959 11.4296 0.750181 12.0233 1.09392C12.6171 1.43766 13.1587 1.85692 13.6483 2.3517C14.1379 2.84648 14.5545 3.38553 14.8983 3.96885C15.242 4.55217 15.5128 5.18757 15.7107 5.87505C15.9087 6.56254 16.005 7.27085 15.9998 8C15.9998 8.73436 15.9034 9.44007 15.7107 10.1171C15.518 10.7942 15.2498 11.4296 14.9061 12.0233C14.5623 12.6171 14.1431 13.1587 13.6483 13.6483C13.1535 14.1379 12.6145 14.5545 12.0311 14.8983C11.4478 15.242 10.8124 15.5128 10.1249 15.7107C9.43746 15.9087 8.72915 16.005 8 15.9998C7.26564 15.9998 6.55993 15.9034 5.88287 15.7107C5.2058 15.518 4.5704 15.2498 3.97666 14.9061C3.38293 14.5623 2.84127 14.1431 2.3517 13.6483C1.86213 13.1535 1.44548 12.6145 1.10174 12.0311C0.757994 11.4478 0.487167 10.8124 0.289256 10.1249C0.0913439 9.43746 -0.00500789 8.72915 0.000200316 8C0.000200316 7.26564 0.0965521 6.55993 0.289256 5.88287C0.481959 5.2058 0.750181 4.5704 1.09392 3.97666C1.43766 3.38293 1.85692 2.84127 2.3517 2.3517C2.84648 1.86213 3.38553 1.44548 3.96885 1.10174C4.55217 0.757994 5.18757 0.487167 5.87505 0.289256C6.56254 0.0913439 7.27085 -0.00500789 8 0.000200316ZM13.953 4.33603C13.8801 4.22145 13.8071 4.11208 13.7342 4.00791C13.6613 3.90375 13.5858 3.79698 13.5077 3.68761C13.4973 3.73448 13.4842 3.76834 13.4686 3.78917C13.453 3.81 13.4426 3.85687 13.4374 3.92979C13.4374 3.97666 13.4556 4.02093 13.4921 4.0626C13.5285 4.10426 13.5754 4.14593 13.6327 4.1876C13.69 4.22926 13.7473 4.26051 13.8045 4.28134C13.8618 4.30218 13.9113 4.3204 13.953 4.33603ZM13.4139 3.57042C13.4139 3.61209 13.4061 3.64073 13.3905 3.65636H13.4374C13.4582 3.65636 13.4738 3.65896 13.4842 3.66417L13.4139 3.57042ZM8 14.9998C8.59373 14.9998 9.17445 14.9243 9.74214 14.7733C10.3098 14.6222 10.8463 14.4087 11.3515 14.1327C11.8567 13.8566 12.3254 13.5181 12.7577 13.1171C13.19 12.716 13.5676 12.2681 13.8905 11.7733C13.8228 11.6171 13.7577 11.4582 13.6952 11.2968C13.6327 11.1353 13.6014 10.9687 13.6014 10.7968C13.6014 10.6093 13.6092 10.4583 13.6249 10.3437C13.6405 10.2291 13.6587 10.1276 13.6795 10.039C13.7004 9.95047 13.7108 9.87495 13.7108 9.81245C13.7108 9.74996 13.703 9.66923 13.6874 9.57027C13.6717 9.47132 13.6275 9.36455 13.5545 9.24997C13.4816 9.13539 13.3853 8.97393 13.2655 8.76561C13.2707 8.72915 13.2785 8.67967 13.2889 8.61717C13.2993 8.55467 13.3098 8.48957 13.3202 8.42186C13.3306 8.35416 13.3332 8.29166 13.328 8.23437C13.3228 8.17708 13.3098 8.1276 13.2889 8.08594C13.1535 8.07031 13.0129 8.04167 12.8671 8C12.7212 7.95833 12.591 7.89584 12.4764 7.8125L12.5233 7.77344C12.4556 7.78907 12.3879 7.8099 12.3202 7.83594C12.2525 7.86198 12.1874 7.89063 12.1249 7.92188C12.0624 7.95313 11.9947 7.97396 11.9218 7.98438C11.8489 7.99479 11.7786 8.00521 11.7108 8.01562L11.5858 8L11.6093 7.94531C11.5364 7.96615 11.4582 7.99219 11.3749 8.02344C11.2916 8.05469 11.2109 8.07031 11.1327 8.07031C11.0807 8.07031 11.0051 8.05208 10.9062 8.01562C10.8072 7.97917 10.7083 7.9349 10.6093 7.88282C10.5104 7.83073 10.4218 7.77344 10.3437 7.71094C10.2656 7.64845 10.2265 7.58855 10.2265 7.53126L10.2421 7.50782C10.2161 7.47658 10.1822 7.44793 10.1406 7.42189C10.0989 7.39585 10.0598 7.36981 10.0234 7.34377C9.98693 7.31773 9.95308 7.28908 9.92183 7.25783C9.89058 7.22658 9.87756 7.19012 9.88277 7.14846L9.9687 7.07815L9.78902 7.05471L9.72652 6.82034C9.73694 6.84638 9.76037 6.8568 9.79683 6.85159C9.83329 6.84638 9.86193 6.83597 9.88277 6.82034L9.60152 6.67191L9.79683 6.17192C9.72392 5.90109 9.70569 5.69277 9.74214 5.54694C9.7786 5.40111 9.84891 5.28132 9.95308 5.18757C10.0572 5.09382 10.1718 5.00007 10.2968 4.90633C10.4218 4.81258 10.5494 4.68498 10.6796 4.52352L10.6562 4.42978L11.1718 3.80479L11.289 3.78917C11.4348 3.78917 11.5989 3.78396 11.7812 3.77354C11.9634 3.76313 12.1483 3.7449 12.3358 3.71886C12.5233 3.69282 12.7082 3.66678 12.8905 3.64073C13.0728 3.61469 13.2395 3.58084 13.3905 3.53917C13.2238 3.34126 13.0494 3.15377 12.8671 2.97669C12.6848 2.79961 12.4895 2.63034 12.2811 2.46889C12.2239 2.48972 12.1535 2.51837 12.0702 2.55482C11.9869 2.59128 11.9035 2.63815 11.8202 2.69545C11.7369 2.75274 11.6718 2.81523 11.6249 2.88294C11.578 2.95065 11.5494 3.02096 11.539 3.09387L11.5858 3.24231C11.4921 3.39334 11.3879 3.48709 11.2734 3.52355C11.1588 3.56001 11.0416 3.58084 10.9218 3.58605C10.802 3.59126 10.677 3.59126 10.5468 3.58605C10.4166 3.58084 10.2916 3.60428 10.1718 3.65636L10.0468 3.39074L10.164 2.93763L10.0312 2.74232L11.3827 2.32045C11.3254 2.17462 11.2317 2.06525 11.1015 1.99234C10.9713 1.91942 10.8281 1.88297 10.6718 1.88297V1.80484L11.1093 1.73453C10.6249 1.49495 10.1223 1.31267 9.60152 1.18767C9.0807 1.06267 8.54686 1.00018 8 1.00018C7.54689 1.00018 7.09898 1.04444 6.65628 1.13298C6.21359 1.22152 5.78651 1.34912 5.37507 1.51579C4.96362 1.68245 4.56519 1.89078 4.17978 2.14077C3.79438 2.39077 3.44282 2.67201 3.12512 2.9845C3.26054 2.9845 3.3647 3.01835 3.43761 3.08606C3.51053 3.15377 3.57824 3.22929 3.64073 3.31262C3.70323 3.39595 3.76834 3.47147 3.83604 3.53917C3.90375 3.60688 3.99489 3.64334 4.10947 3.64855L4.23447 3.5548L4.21884 3.38293L4.47665 3.01575L4.27353 2.43764C4.29957 2.42201 4.33863 2.39597 4.39072 2.35952C4.4428 2.32306 4.48707 2.30483 4.52352 2.30483C4.67977 2.30483 4.79956 2.31264 4.88289 2.32827C4.96622 2.34389 5.03914 2.37254 5.10163 2.4142C5.16413 2.45587 5.21882 2.51576 5.26569 2.59389C5.31257 2.67201 5.38548 2.77096 5.48444 2.89075L5.76568 2.67201C5.81776 2.69284 5.90109 2.72669 6.01567 2.77357C6.13026 2.82044 6.24744 2.87773 6.36723 2.94544C6.48702 3.01315 6.58858 3.08346 6.67191 3.15637C6.75524 3.22929 6.79951 3.29699 6.80472 3.35949C6.80472 3.43761 6.77607 3.50011 6.71878 3.54699C6.66149 3.59386 6.58597 3.63292 6.49223 3.66417C6.39848 3.69542 6.30213 3.71886 6.20317 3.73448C6.10421 3.75011 6.00526 3.77094 5.9063 3.79698C5.80735 3.82302 5.73183 3.84906 5.67975 3.8751C5.62766 3.90114 5.59641 3.94541 5.586 4.00791L6.03911 4.15635C5.93495 4.24489 5.82297 4.32561 5.70318 4.39853C5.58339 4.47144 5.4584 4.53915 5.32819 4.60165L5.35944 4.73446L4.64071 5.0157V5.23444L4.58602 5.25788L4.62508 4.98445L4.59384 4.97664C4.55738 4.97664 4.53654 4.98445 4.53134 5.00007C4.52613 5.0157 4.52352 5.03393 4.52352 5.05476C4.52352 5.07559 4.52873 5.09643 4.53915 5.11726C4.54957 5.13809 4.55217 5.15372 4.54696 5.16413L4.4454 5.10945L4.46103 5.1407C4.46103 5.15632 4.46884 5.17976 4.48446 5.21101C4.50009 5.24226 4.52092 5.2709 4.54696 5.29694C4.573 5.32298 4.59384 5.34902 4.60946 5.37507C4.62508 5.40111 4.6355 5.41413 4.64071 5.41413C4.64071 5.42975 4.63029 5.44538 4.60946 5.461C4.58863 5.47663 4.56259 5.48704 4.53134 5.49225C4.50009 5.49746 4.47925 5.50527 4.46884 5.51569C4.45842 5.5261 4.45842 5.52871 4.46884 5.5235C4.54175 5.5235 4.55738 5.52871 4.51571 5.53912C4.47405 5.54954 4.40894 5.57558 4.3204 5.61725C4.23186 5.65891 4.15114 5.71881 4.07822 5.79693C4.00531 5.87505 3.96364 5.98963 3.95323 6.14067C3.95323 6.22921 3.95583 6.31515 3.96104 6.39848C3.96625 6.48181 3.96364 6.56774 3.95323 6.65628C3.88031 6.45837 3.77094 6.30733 3.62511 6.20317C3.47928 6.09901 3.3022 6.04692 3.09387 6.04692L2.75794 6.07817L2.922 6.18755C2.83346 6.17713 2.74232 6.16671 2.64857 6.1563C2.55482 6.14588 2.45847 6.14328 2.35952 6.14848C2.26056 6.15369 2.17202 6.17452 2.0939 6.21098C2.01577 6.24744 1.93765 6.30213 1.85953 6.37504L1.81265 6.72659C1.81265 6.89326 1.84911 7.02867 1.92203 7.13283C1.99494 7.237 2.12254 7.29168 2.30483 7.29689C2.46108 7.29689 2.61472 7.27346 2.76576 7.22658C2.91679 7.17971 3.06523 7.12502 3.21106 7.06252C3.16418 7.1771 3.1121 7.28648 3.05481 7.39064C2.99752 7.4948 2.95586 7.60938 2.92981 7.73438L3.03137 7.78126C3.15637 7.69792 3.27095 7.6849 3.37512 7.74219C3.47928 7.79948 3.58084 7.88282 3.6798 7.99219C3.77875 8.10156 3.88031 8.21354 3.98448 8.32812C4.08864 8.4427 4.20062 8.52603 4.3204 8.57811L4.05479 8.71873L3.4298 8.36718C3.43501 8.37759 3.44022 8.40103 3.44543 8.43749C3.45063 8.47395 3.44803 8.48176 3.43761 8.46093L3.15637 7.98438C2.98971 7.97917 2.81263 7.95313 2.62513 7.90625C2.43764 7.85938 2.24754 7.79688 2.05484 7.71876C1.86213 7.64063 1.68245 7.5547 1.51579 7.46095C1.34912 7.3672 1.19548 7.26825 1.05486 7.16408L1.00018 8C1.00018 8.6354 1.08611 9.25518 1.25798 9.85933C1.42985 10.4635 1.67203 11.0312 1.98453 11.5624C2.29702 12.0936 2.67982 12.578 3.13293 13.0155C3.58605 13.453 4.08864 13.8254 4.64071 14.1327C4.61467 14.0233 4.61206 13.9139 4.6329 13.8045C4.65373 13.6952 4.67977 13.5858 4.71102 13.4764C4.74227 13.3671 4.77612 13.2577 4.81258 13.1483C4.84904 13.0389 4.86727 12.927 4.86727 12.8124C4.86727 12.6457 4.84122 12.4712 4.78914 12.289C4.73706 12.1067 4.67456 11.9218 4.60165 11.7343C4.52873 11.5468 4.44801 11.3619 4.35947 11.1796C4.27093 10.9973 4.20062 10.8254 4.14853 10.664C4.09645 10.5025 4.05479 10.3515 4.02354 10.2109C3.99229 10.0703 4.00791 9.94787 4.07041 9.8437L3.95323 9.78902C3.98448 9.7161 4.02614 9.64579 4.07822 9.57809C4.13031 9.51038 4.18499 9.44267 4.24228 9.37497C4.29957 9.30726 4.34384 9.23434 4.37509 9.15622C4.40634 9.0781 4.42457 8.99998 4.42978 8.92185C4.42978 8.86977 4.41936 8.81508 4.39853 8.75779C4.37769 8.7005 4.35947 8.64582 4.34384 8.59373L4.5079 8.6328C4.59644 8.42968 4.71623 8.29166 4.86727 8.21874C5.0183 8.14583 5.2084 8.10677 5.43756 8.10156C5.4636 8.10156 5.51829 8.11198 5.60162 8.13281C5.68495 8.15364 5.77349 8.18229 5.86724 8.21874C5.96099 8.2552 6.04953 8.28385 6.13286 8.30468C6.21619 8.32551 6.27869 8.34635 6.32035 8.36718C6.32035 8.40364 6.34119 8.42707 6.38285 8.43749C6.42452 8.44791 6.44796 8.46613 6.45316 8.49218L6.43754 8.55467C6.45316 8.55988 6.48962 8.57811 6.54691 8.60936C6.6042 8.64061 6.6667 8.67967 6.73441 8.72654C6.80211 8.77342 6.86201 8.81508 6.91409 8.85154C6.96617 8.888 7.00263 8.91664 7.02346 8.93748C7.11721 8.93748 7.24481 8.96873 7.40626 9.03122C7.56772 9.09372 7.7448 9.17185 7.9375 9.26559C8.13021 9.35934 8.3203 9.47132 8.5078 9.60152C8.6953 9.73173 8.87237 9.86193 9.03904 9.99214C9.2057 10.1223 9.3333 10.2525 9.42184 10.3828C9.51038 10.513 9.56246 10.6275 9.57809 10.7265L9.31247 11.0077C9.3333 11.2734 9.31507 11.4765 9.25778 11.6171C9.20049 11.7577 9.11195 11.8749 8.99216 11.9687C8.87237 12.0624 8.73436 12.1405 8.57811 12.203C8.42186 12.2655 8.2526 12.3541 8.07031 12.4686C8.07031 12.5728 8.04427 12.6848 7.99219 12.8046C7.94011 12.9244 7.875 13.0389 7.79688 13.1483C7.71876 13.2577 7.62501 13.3488 7.51564 13.4217C7.40626 13.4947 7.29689 13.5311 7.18752 13.5311L6.8594 13.2811C6.86982 13.2915 6.86982 13.3098 6.8594 13.3358C6.84899 13.3618 6.83597 13.3671 6.82034 13.3514C6.87242 13.4504 6.88544 13.565 6.8594 13.6952C6.83336 13.8254 6.78909 13.9582 6.72659 14.0936C6.6641 14.229 6.59379 14.3566 6.51566 14.4764C6.43754 14.5962 6.36723 14.6977 6.30473 14.7811C6.58597 14.854 6.86722 14.9087 7.14846 14.9451C7.4297 14.9816 7.71355 14.9998 8 14.9998Z" fill="white"/>
</svg>
