<svg width="15" height="16" viewBox="0 0 15 16" fill="none" xmlns="http://www.w3.org/2000/svg">
<path d="M11.5045 5.33638C12.0015 5.33638 12.4045 4.93343 12.4045 4.43638C12.4045 3.93932 12.0015 3.53638 11.5045 3.53638C11.0074 3.53638 10.6045 3.93932 10.6045 4.43638C10.6045 4.93343 11.0074 5.33638 11.5045 5.33638Z" fill="white"/>
<path d="M7.50048 4.58887C6.73878 4.58887 5.99418 4.81474 5.36084 5.23792C4.72751 5.6611 4.23388 6.26258 3.94239 6.96631C3.6509 7.67003 3.57463 8.44439 3.72323 9.19146C3.87183 9.93853 4.23863 10.6248 4.77724 11.1634C5.31585 11.702 6.00207 12.0688 6.74914 12.2174C7.49621 12.366 8.27057 12.2897 8.97429 11.9982C9.67802 11.7067 10.2795 11.2131 10.7027 10.5798C11.1259 9.94642 11.3517 9.20182 11.3517 8.44012C11.3517 7.4187 10.946 6.43912 10.2237 5.71687C9.50148 4.99462 8.5219 4.58887 7.50048 4.58887ZM7.50048 10.9401C7.00603 10.9401 6.52268 10.7935 6.11156 10.5188C5.70043 10.2441 5.38 9.85364 5.19078 9.39683C5.00156 8.94001 4.95206 8.43734 5.04852 7.95239C5.14498 7.46744 5.38308 7.02198 5.73272 6.67235C6.08235 6.32272 6.52781 6.08462 7.01276 5.98815C7.49771 5.89169 8.00038 5.9412 8.45719 6.13042C8.91401 6.31964 9.30445 6.64007 9.57916 7.05119C9.85386 7.46231 10.0005 7.94566 10.0005 8.44012C10.0005 9.10316 9.73709 9.73904 9.26825 10.2079C8.79941 10.6767 8.16353 10.9401 7.50048 10.9401Z" fill="white"/>
<path d="M7.5 2.29156C9.5025 2.29156 9.74 2.29906 10.5306 2.33531C11.0062 2.34095 11.4772 2.42827 11.9231 2.59343C12.2467 2.71824 12.5405 2.9094 12.7857 3.15461C13.0309 3.39982 13.2221 3.69364 13.3469 4.01718C13.512 4.46314 13.5994 4.93416 13.605 5.40968C13.6412 6.20031 13.6487 6.43781 13.6487 8.44093C13.6487 10.4441 13.6412 10.6803 13.605 11.4709C13.5994 11.9465 13.512 12.4175 13.3469 12.8634C13.2221 13.187 13.0309 13.4808 12.7857 13.726C12.5405 13.9712 12.2467 14.1624 11.9231 14.2872C11.4772 14.4523 11.0062 14.5397 10.5306 14.5453C9.74 14.5816 9.5025 14.5891 7.5 14.5891C5.4975 14.5891 5.26 14.5816 4.46938 14.5453C3.99385 14.5397 3.52283 14.4523 3.07688 14.2872C2.75334 14.1624 2.45951 13.9712 2.2143 13.726C1.96909 13.4808 1.77793 13.187 1.65313 12.8634C1.48796 12.4175 1.40065 11.9465 1.395 11.4709C1.35875 10.6803 1.35125 10.4428 1.35125 8.44031C1.35125 6.43781 1.35875 6.20031 1.395 5.40968C1.40065 4.93416 1.48796 4.46314 1.65313 4.01718C1.77793 3.69364 1.96909 3.39982 2.2143 3.15461C2.45951 2.9094 2.75334 2.71824 3.07688 2.59343C3.52283 2.42827 3.99385 2.34095 4.46938 2.33531C5.26 2.29906 5.4975 2.29156 7.5 2.29156ZM7.5 0.940308C5.46312 0.940308 5.2075 0.949058 4.4075 0.985308C3.78548 0.997868 3.1701 1.11579 2.5875 1.33406C2.0892 1.52674 1.63666 1.82142 1.25889 2.19919C0.881111 2.57697 0.586436 3.02951 0.39375 3.52781C0.175412 4.1106 0.0574896 4.72621 0.045 5.34843C0.00875002 6.14843 0 6.40281 0 8.44031C0 10.4778 0.00875002 10.7328 0.045 11.5328C0.0575601 12.1548 0.175481 12.7702 0.39375 13.3528C0.586436 13.8511 0.881111 14.3036 1.25889 14.6814C1.63666 15.0592 2.0892 15.3539 2.5875 15.5466C3.1703 15.7649 3.7859 15.8828 4.40813 15.8953C5.20813 15.9316 5.46312 15.9403 7.5 15.9403C9.53687 15.9403 9.7925 15.9316 10.5925 15.8953C11.2147 15.8828 11.8303 15.7649 12.4131 15.5466C12.9114 15.3539 13.364 15.0592 13.7417 14.6814C14.1195 14.3036 14.4142 13.8511 14.6069 13.3528C14.825 12.77 14.9427 12.1544 14.955 11.5322C14.9913 10.7322 15 10.4778 15 8.44031C15 6.40281 14.9913 6.14781 14.955 5.34781C14.9424 4.72579 14.8245 4.11041 14.6063 3.52781C14.4136 3.02951 14.1189 2.57697 13.7411 2.19919C13.3633 1.82142 12.9108 1.52674 12.4125 1.33406C11.8297 1.11593 11.2141 0.998222 10.5919 0.985933C9.79187 0.948433 9.5375 0.940308 7.5 0.940308Z" fill="white"/>
</svg>
