<svg width="14" height="17" viewBox="0 0 14 17" fill="none" xmlns="http://www.w3.org/2000/svg">
<path d="M7.32772 16.7236C6.17292 15.7662 5.10253 14.7165 4.12773 13.5856C2.66487 11.8872 0.927735 9.35796 0.927735 6.94776C0.927101 5.71686 1.30214 4.51343 2.00539 3.48979C2.70865 2.46615 3.7085 1.66831 4.87842 1.19724C6.04833 0.726163 7.33572 0.603034 8.57765 0.843433C9.81958 1.08383 10.9602 1.67695 11.8552 2.54773C12.4511 3.12438 12.9235 3.81018 13.2449 4.56545C13.5663 5.32071 13.7304 6.13044 13.7277 6.94776C13.7277 9.35796 11.9906 11.8872 10.5277 13.5856C9.55291 14.7165 8.48251 15.7662 7.32772 16.7236ZM7.32772 4.28161C6.60027 4.28161 5.90261 4.56251 5.38823 5.06251C4.87385 5.56251 4.58487 6.24066 4.58487 6.94776C4.58487 7.65487 4.87385 8.33301 5.38823 8.83301C5.90261 9.33301 6.60027 9.61391 7.32772 9.61391C8.05517 9.61391 8.75282 9.33301 9.26721 8.83301C9.78159 8.33301 10.0706 7.65487 10.0706 6.94776C10.0706 6.24066 9.78159 5.56251 9.26721 5.06251C8.75282 4.56251 8.05517 4.28161 7.32772 4.28161Z" fill="white"/>
</svg>
