<svg width="40" height="43" viewBox="0 0 40 43" fill="none" xmlns="http://www.w3.org/2000/svg">
<path d="M11.0822 40.8846V43.0001H10.6168V39.996H10.9823L12.6688 42.1623V40.0002H13.1383V43.0001H12.752L11.0822 40.8846Z" fill="#333333"/>
<path d="M15.4233 43.0001V39.996H15.8886V43.0001H15.4233Z" fill="#333333"/>
<path d="M18.1728 43.0001V40.0002H18.6381V41.5442L20.0258 39.996H20.5411L19.3782 41.3246L20.6077 43.0001H20.0882L19.091 41.6163L18.6381 42.0945V43.0001H18.1728Z" fill="#333333"/>
<path d="M23.403 39.996H23.81L24.9729 43.0001H24.4826L24.1713 42.1835H23.0334L22.7262 43.0001H22.2318L23.403 39.996ZM24.0806 41.8325L23.6069 40.542L23.1166 41.8325H24.0806Z" fill="#333333"/>
<path d="M29.3807 39.996V43.0001H28.9112V41.6756H27.4236V43.0001H26.9583V39.996H27.4236V41.2525H28.9112V39.996H29.3807Z" fill="#333333"/>
<path d="M3.79339 41.9122C3.79339 41.9122 3.81004 41.9054 3.84167 41.8927C3.8733 41.88 3.92158 41.8647 3.98818 41.8571C4.05311 41.8511 4.13885 41.8545 4.22958 41.8969C4.2737 41.919 4.31865 41.9495 4.35861 41.9919C4.39773 42.0343 4.43186 42.0868 4.45517 42.1479C4.50345 42.2691 4.50345 42.4268 4.43602 42.5693C4.37026 42.7134 4.23707 42.8287 4.08557 42.8966C3.9324 42.9678 3.76092 42.9941 3.58694 42.9992C3.50037 43.0034 3.40631 42.9949 3.31391 42.9771C3.22151 42.9551 3.12827 42.9212 3.0417 42.8694C2.92433 42.7974 2.8286 42.6931 2.76533 42.5769C2.70124 42.4608 2.66794 42.3336 2.65878 42.2106C2.64047 41.9639 2.70956 41.7384 2.81112 41.5603C2.91434 41.3822 3.04753 41.2474 3.17988 41.1567C3.31224 41.0651 3.4396 41.01 3.54532 40.9786C3.64605 40.932 3.77341 40.8837 3.9324 40.8574C4.09056 40.8311 4.28619 40.8481 4.47348 40.9405C4.65995 41.0321 4.8231 41.1881 4.96878 41.3577C5.11612 41.5281 5.2543 41.7138 5.40664 41.8935C5.62807 42.1581 5.86781 42.3751 6.1217 42.5184C6.37476 42.6617 6.63364 42.7355 6.85424 42.7736C6.88171 42.7787 6.90918 42.7838 6.93582 42.788C6.96245 42.7914 6.98826 42.794 7.01406 42.7965C7.06484 42.8016 7.11229 42.8092 7.15724 42.8118C7.24715 42.8152 7.32539 42.8228 7.38949 42.822C7.51769 42.822 7.58844 42.822 7.58844 42.822C7.58844 42.822 7.51769 42.8338 7.39116 42.8559C7.32706 42.8669 7.24881 42.8711 7.15641 42.8805C7.11063 42.8847 7.06151 42.883 7.00907 42.8847C6.98243 42.8847 6.95579 42.8856 6.92832 42.8856C6.90085 42.8839 6.87255 42.8822 6.84342 42.8805C6.61117 42.8677 6.32731 42.8177 6.04095 42.6804C5.89777 42.6117 5.75709 42.5193 5.62307 42.4099C5.48905 42.3005 5.36419 42.1725 5.24764 42.0343C5.08948 41.8469 4.95463 41.6553 4.82144 41.4865C4.75484 41.4017 4.68825 41.3229 4.61833 41.2542C4.55007 41.183 4.47681 41.127 4.40273 41.0804C4.25289 40.9897 4.09056 40.9566 3.94406 40.9625C3.79755 40.9685 3.66852 40.9981 3.56697 41.0287C3.4704 41.0745 3.35802 41.1431 3.24648 41.2415C3.13493 41.339 3.02921 41.473 2.95263 41.6358C2.87688 41.7986 2.83359 41.9953 2.85773 42.192C2.88104 42.3878 2.98177 42.5795 3.15574 42.6855C3.21984 42.7236 3.2906 42.7507 3.36385 42.7694C3.43877 42.7847 3.51202 42.794 3.59027 42.794C3.74511 42.7948 3.89494 42.7796 4.02147 42.7295C4.14883 42.6821 4.25372 42.6032 4.31199 42.5015C4.37109 42.4014 4.38525 42.2827 4.35861 42.1835C4.34529 42.1343 4.32365 42.0894 4.29701 42.0504C4.26954 42.0122 4.23624 41.9825 4.20128 41.9588C4.13052 41.9122 4.05477 41.8969 3.99317 41.8927C3.93074 41.8901 3.88162 41.8969 3.84916 41.9037C3.81087 41.9088 3.79339 41.9122 3.79339 41.9122Z" fill="#333333"/>
<path d="M35.4658 41.7392C35.4658 41.7392 35.4483 41.7367 35.415 41.7308C35.3817 41.7248 35.3326 41.7214 35.2701 41.7257C35.2085 41.7325 35.1336 41.7511 35.0645 41.8003C35.0312 41.8257 34.9988 41.8571 34.973 41.8961C34.948 41.936 34.928 41.9809 34.9163 42.0309C34.8939 42.131 34.9122 42.2488 34.9754 42.3463C35.0379 42.4455 35.1461 42.5202 35.2751 42.5626C35.4033 42.6066 35.554 42.6168 35.7088 42.6092C35.7871 42.6066 35.8603 42.5939 35.9336 42.5761C36.006 42.5541 36.0751 42.5244 36.1375 42.4837C36.3082 42.3709 36.4006 42.1759 36.4164 41.9784C36.433 41.7808 36.3823 41.5858 36.2998 41.4264C36.2166 41.267 36.1059 41.1372 35.9902 41.044C35.8753 40.9499 35.7596 40.8863 35.6614 40.8447C35.5582 40.8184 35.4283 40.7947 35.2818 40.7947C35.1353 40.7947 34.9746 40.8345 34.8281 40.9312C34.7557 40.9804 34.6849 41.0397 34.6192 41.1135C34.5526 41.1847 34.4885 41.2661 34.4252 41.3543C34.2987 41.5281 34.1713 41.7257 34.0207 41.919C33.9099 42.0614 33.7901 42.1946 33.6602 42.3099C33.5303 42.4243 33.3938 42.5227 33.2531 42.5973C32.9718 42.7474 32.6904 42.8084 32.459 42.8305C32.4299 42.833 32.4016 42.8364 32.3741 42.839C32.3466 42.8398 32.3192 42.8407 32.2934 42.8415C32.2409 42.8424 32.1918 42.8457 32.146 42.8432C32.0536 42.8373 31.9754 42.8364 31.9113 42.8279C31.7839 42.8118 31.7132 42.8025 31.7132 42.8025C31.7132 42.8025 31.7847 42.8 31.9121 42.794C31.9762 42.7923 32.0536 42.7813 32.1435 42.7745C32.1885 42.7703 32.2359 42.761 32.2859 42.7533C32.3108 42.7491 32.3366 42.7457 32.3633 42.7415C32.3891 42.7355 32.4166 42.7296 32.444 42.7237C32.663 42.6762 32.9185 42.5922 33.1657 42.4388C33.4138 42.2853 33.6444 42.0589 33.855 41.785C33.9998 41.5993 34.1305 41.4086 34.2712 41.2322C34.4102 41.0567 34.5676 40.8947 34.7499 40.7955C34.933 40.6955 35.1286 40.6718 35.2868 40.6904C35.4466 40.7099 35.5756 40.754 35.678 40.7964C35.7846 40.8244 35.9144 40.8735 36.0501 40.96C36.1858 41.0457 36.324 41.1746 36.4339 41.3484C36.5421 41.5222 36.6203 41.7452 36.6112 41.9919C36.6062 42.1149 36.5779 42.2429 36.5188 42.3624C36.4597 42.4812 36.3681 42.5897 36.2541 42.666C36.1692 42.7211 36.0784 42.7593 35.986 42.7847C35.8945 42.8059 35.8004 42.8186 35.7138 42.8178C35.5407 42.8195 35.3675 42.8008 35.2119 42.7355C35.057 42.6736 34.9197 42.5634 34.8489 42.4226C34.7765 42.2827 34.7698 42.1259 34.8131 42.0029C34.8348 41.941 34.8664 41.8876 34.9039 41.8435C34.9422 41.8003 34.9854 41.7672 35.0287 41.7435C35.117 41.6977 35.2027 41.6909 35.2685 41.6935C35.3342 41.6986 35.3833 41.7121 35.4158 41.7231C35.4491 41.7333 35.4658 41.7392 35.4658 41.7392Z" fill="#333333"/>
<path d="M20.2181 5.97335L20.04 5.60452C19.9967 5.51464 19.8701 5.51464 19.826 5.60452L19.6471 5.97335C19.6296 6.00896 19.5963 6.03355 19.5571 6.03949L19.1576 6.09884C19.0602 6.11325 19.0211 6.23535 19.0918 6.30572L19.3807 6.59231C19.409 6.62029 19.4215 6.66014 19.4148 6.69999L19.3465 7.10529C19.3299 7.20449 19.4323 7.27995 19.5197 7.23332L19.8768 7.04169C19.9118 7.02304 19.9534 7.02304 19.9875 7.04169L20.3446 7.23332C20.432 7.27995 20.5344 7.20449 20.5178 7.10529L20.4495 6.69999C20.4429 6.66099 20.4553 6.62029 20.4836 6.59231L20.7725 6.30572C20.8433 6.23535 20.8041 6.11325 20.7067 6.09884L20.3072 6.03949C20.2689 6.03355 20.2347 6.00896 20.2181 5.97335Z" fill="#9E1936"/>
<path d="M21.3211 17.7693H20.9257H19.1592C16.4339 17.7693 14.2246 20.0196 14.2246 22.7956V33.8038C14.2246 35.5801 15.5165 37.1351 17.2521 37.3013C19.2442 37.4921 20.9257 35.8947 20.9257 33.9038V19.7025H21.3211C22.747 19.7025 23.9033 20.8802 23.9033 22.3326V32.7524C23.9033 33.9606 23.0991 34.9815 22.007 35.2884C21.5999 35.4029 21.3211 35.7853 21.3211 36.2152C21.3211 36.8502 21.9138 37.3208 22.5148 37.1513C24.4077 36.6179 25.8012 34.8475 25.8012 32.7524V22.3326C25.8012 19.8119 23.7959 17.7693 21.3211 17.7693ZM19.0277 33.903C19.0277 34.7186 18.3759 35.3825 17.5751 35.3825C16.7743 35.3825 16.1225 34.7186 16.1225 33.903V22.7956C16.1225 21.1354 17.4136 19.7762 19.0277 19.7059V33.903V33.903Z" fill="#9E1936"/>
<path d="M13.4238 14.566C13.4238 14.9738 13.5653 15.3223 13.8483 15.6106C14.133 15.9006 14.476 16.0464 14.8772 16.0464H15.7196V16.2813H14.8772C14.4127 16.2813 14.0148 16.1134 13.6835 15.7785C13.3547 15.4436 13.1899 15.0391 13.1899 14.566V14.1276H15.4924V13.1831C15.4924 12.8931 15.3917 12.6447 15.1902 12.4395C14.9888 12.2343 14.7457 12.1317 14.4602 12.1317H13.4221V13.3323H13.189V11.8943H14.4602C14.809 11.8943 15.107 12.0206 15.3542 12.2724C15.6014 12.5243 15.7255 12.8278 15.7255 13.1831V14.365H13.4221V14.566H13.4238Z" fill="#9E1936"/>
<path d="M16.5337 13.975C16.5337 14.02 16.5496 14.0573 16.5812 14.0878C16.6128 14.12 16.6511 14.1361 16.6952 14.1361H17.2696V14.3642H16.6952C16.5895 14.3642 16.4988 14.3261 16.423 14.2489C16.3489 14.1717 16.3123 14.0802 16.3123 13.975V9.99927H16.5337V13.975V13.975Z" fill="#9E1936"/>
<path d="M22.4049 14.1276L22.4257 14.131H22.9643V14.3659H22.4257L22.3807 14.3625C22.2892 14.3523 22.2043 14.3201 22.1269 14.265V14.3684L21.9862 14.3651H17.2338V14.1302H21.8929V13.8411V13.8012V13.6096H21.8963V13.4298C21.8921 13.2594 21.8305 13.1153 21.7106 12.9974C21.5908 12.8795 21.4476 12.821 21.2803 12.821H18.3043V11.0176C18.3043 10.731 18.4042 10.4876 18.6032 10.2867C18.8005 10.084 19.0394 9.9823 19.3207 9.9823H20.2897V10.2197H19.3207C19.1035 10.2197 18.9187 10.2977 18.7672 10.4546C18.6132 10.6089 18.5366 10.7971 18.5366 11.0184V12.5845H21.2819C21.5134 12.5862 21.7106 12.6676 21.8738 12.8278C22.0353 12.9906 22.1194 13.189 22.1252 13.4247V13.8419C22.1352 13.9174 22.166 13.9818 22.2176 14.0369C22.2709 14.0912 22.3333 14.1217 22.4049 14.1276ZM20.2905 11.4102V10.2189H20.0599V11.4102H20.2905Z" fill="#9E1936"/>
<path d="M24.3103 14.1243H24.8755V14.3651H24.3311L24.2862 14.3617C24.1921 14.3515 24.1064 14.3185 24.029 14.2608V14.3643H22.946V14.1235H23.795V11.2432H24.0281V13.7962C24.0281 13.8793 24.0548 13.953 24.1089 14.0158C24.163 14.0802 24.2304 14.1167 24.3103 14.1243Z" fill="#9E1936"/>
<path d="M25.6705 9.98743H25.892V13.9717C25.892 14.0794 25.8553 14.1718 25.7812 14.2489C25.7055 14.3261 25.6148 14.3642 25.509 14.3642H24.8572V14.1362H25.509C25.5532 14.1362 25.5906 14.1201 25.6222 14.0878C25.6539 14.0556 25.6697 14.0166 25.6697 13.9717V9.98743H25.6705Z" fill="#9E1936"/>
<path d="M26.6969 16.2813H26.4788V9.98145H26.6969V16.2813Z" fill="#9E1936"/>
<path d="M24.029 10.536H23.7926V10.8404H24.029V10.536Z" fill="#9E1936"/>
<path d="M39.7586 15.2917C39.379 14.532 37.2422 10.82 32.4823 12.2419C32.4715 10.2612 31.4867 8.36615 29.9084 7.29442C28.4059 6.27525 26.6162 6.12009 24.8539 6.85266C24.8431 3.90539 23.5145 3.07361 22.2342 2.2732L22.2101 2.25963C21.6457 1.90352 21.063 1.53299 20.6343 0.97762L19.881 0L19.1351 0.983555C18.7147 1.53892 18.1428 1.90861 17.5785 2.27066C16.3198 3.077 15.0187 3.91133 15.0187 6.8586C13.259 6.12093 11.4634 6.2761 9.95588 7.29526C8.37509 8.367 7.39033 10.2595 7.37951 12.2427C3.66936 11.1354 1.18788 13.0906 0.100724 15.2951L0 15.4986V37.3157V37.4539H3.07916L3.27479 37.1775H2.55556C2.19262 37.1775 1.89794 36.8774 1.89794 36.5077V15.9684C2.44818 14.9687 3.88579 13.2008 6.87422 14.1038C7.43278 14.2751 8.04878 14.1649 8.52826 13.8028C8.99775 13.4467 9.27662 12.8744 9.27662 12.2749C9.27662 10.9183 9.9409 9.62866 11.0064 8.90541C11.9878 8.23982 13.1324 8.15163 14.312 8.65443C14.8947 8.90287 15.5565 8.83673 16.0751 8.48316C16.5987 8.12705 16.91 7.53267 16.91 6.89506C16.91 4.98391 17.4686 4.6244 18.6023 3.89776C18.9953 3.64339 19.4514 3.35087 19.8901 2.96423C20.3405 3.35341 20.8066 3.64933 21.2079 3.9037L21.2353 3.92065C22.3799 4.63627 22.9543 4.99493 22.9543 6.89591C22.9543 7.53098 23.2631 8.12535 23.7867 8.48401C24.3103 8.84012 24.9721 8.90372 25.5465 8.65528C26.7127 8.16096 27.8865 8.24914 28.8546 8.90626C29.9201 9.62951 30.5819 10.92 30.5819 12.2758C30.5819 12.8727 30.8641 13.4442 31.341 13.8088C31.813 14.1649 32.4315 14.276 32.9901 14.1047C35.9977 13.1957 37.4677 15.1018 37.9639 15.9777V16.6789C38.6823 17.0163 39.3249 17.4912 39.8618 18.0711V15.4995L39.7586 15.2917Z" fill="#9E1936"/>
<path d="M12.5081 32.7532V22.3309C12.5081 21.4025 12.7146 20.508 13.1075 19.7016C13.3356 19.2378 13.6202 18.8012 13.9674 18.406L14.58 17.7684H14.0348H12.0445H3.77258V19.7016H11.0514C10.785 20.4656 10.636 21.2728 10.6143 22.1029C9.83268 21.5373 8.86873 21.2177 7.82902 21.2643C5.41247 21.3711 3.54616 23.4815 3.54616 25.9447V34.4533C3.54616 35.9243 4.63331 37.2114 6.07509 37.3098C7.65587 37.4175 8.97611 36.138 8.97611 34.5508V25.9642C8.97611 25.441 8.59153 24.9713 8.07792 24.9441C7.53018 24.9153 7.07817 25.3588 7.07817 25.9099V34.5508C7.07817 35.0637 6.62033 35.469 6.09923 35.3664C5.71131 35.2893 5.44577 34.9204 5.44577 34.5177V25.8234C5.44577 24.3133 6.70107 23.0966 8.20445 23.1992C9.57546 23.2924 10.6102 24.5168 10.6102 25.9158V37.1775H10.6043V37.4539H13.6835L13.8791 37.1775H13.1657C12.8028 37.1775 12.5081 36.8774 12.5081 36.5077V32.7532Z" fill="#9E1936"/>
<path d="M40 34.2158L39.7286 34.0149V34.5872C39.7286 35.0264 39.379 35.3825 38.9478 35.3825H33.5686C33.1258 35.3825 32.7753 34.9705 32.8669 34.5033C32.9335 34.1658 33.2407 33.9233 33.5786 33.9225C37.0732 33.9174 39.9143 31.0193 39.9143 27.459V22.3318C39.9143 19.8415 37.9456 17.81 35.5099 17.7693C33.0042 17.7269 30.954 19.9 30.954 22.453V27.4632C30.954 29.0505 32.2742 30.33 33.8542 30.2223C35.2951 30.1239 36.3831 28.8377 36.3831 27.3657V22.4734C36.3831 21.9502 35.9985 21.4805 35.4849 21.4534C34.9371 21.4245 34.4851 21.868 34.4851 22.4191V27.4632C34.4851 27.9762 34.0273 28.3815 33.5062 28.2789C33.1183 28.2017 32.8527 27.8329 32.8527 27.4302V22.3326C32.8527 20.8225 34.108 19.6058 35.6114 19.7084C36.9824 19.8017 38.0163 21.026 38.0163 22.4251V27.459C38.0163 29.9764 36.0018 31.9537 33.5312 31.9893C32.0136 32.0113 30.8058 33.3561 30.9689 34.9391C31.1046 36.2516 32.3541 37.3149 33.6494 37.3149H39.8651H40.0008V34.2158H40Z" fill="#9E1936"/>
<path d="M32.1452 42.2038C32.3838 42.2038 32.5772 42.0068 32.5772 41.7638C32.5772 41.5208 32.3838 41.3237 32.1452 41.3237C31.9066 41.3237 31.7132 41.5208 31.7132 41.7638C31.7132 42.0068 31.9066 42.2038 32.1452 42.2038Z" fill="#333333"/>
<path d="M7.15225 42.2038C7.39085 42.2038 7.58428 42.0068 7.58428 41.7638C7.58428 41.5208 7.39085 41.3237 7.15225 41.3237C6.91364 41.3237 6.72021 41.5208 6.72021 41.7638C6.72021 42.0068 6.91364 42.2038 7.15225 42.2038Z" fill="#333333"/>
<path d="M30.2156 37.1784C29.7986 37.1784 29.4606 36.8341 29.4606 36.4093V19.7059V17.8456H27.5626H25.375C25.375 17.8456 26.2233 18.5468 26.6203 19.7059H27.5626V37.1784V37.4548H30.6418L30.8374 37.1784H30.2156Z" fill="#9E1936"/>
</svg>
