<svg width="12" height="12" viewBox="0 0 12 12" fill="none" xmlns="http://www.w3.org/2000/svg">
<path d="M5.96277 9.702L3.16375 11.8391C3.02506 11.9526 2.87377 12.006 2.70986 11.9995C2.54595 11.9934 2.40096 11.9463 2.27488 11.858C2.1488 11.7697 2.05121 11.65 1.98211 11.4987C1.91252 11.3474 1.90924 11.1835 1.97228 11.0069L3.05028 7.50817L0.308 5.56021C0.156702 5.45934 0.0621403 5.32696 0.0243158 5.16305C-0.0135088 4.99915 -0.00720464 4.84785 0.0432281 4.70916C0.0936609 4.57047 0.181918 4.44741 0.308 4.33999C0.434082 4.23307 0.58538 4.17961 0.761895 4.17961H4.14719L5.2441 0.548456C5.30715 0.371941 5.40498 0.236278 5.53762 0.141464C5.66976 0.0471548 5.81147 0 5.96277 0C6.11407 0 6.25579 0.0471548 6.38792 0.141464C6.52056 0.236278 6.6184 0.371941 6.68144 0.548456L7.77835 4.17961H11.1636C11.3402 4.17961 11.4915 4.23307 11.6175 4.33999C11.7436 4.44741 11.8319 4.57047 11.8823 4.70916C11.9327 4.84785 11.9391 4.99915 11.9012 5.16305C11.8634 5.32696 11.7688 5.45934 11.6175 5.56021L8.87526 7.50817L9.95326 11.0069C10.0163 11.1835 10.0133 11.3474 9.94419 11.4987C9.87459 11.65 9.77675 11.7697 9.65067 11.858C9.52458 11.9463 9.37959 11.9934 9.21568 11.9995C9.05178 12.006 8.90048 11.9526 8.76179 11.8391L5.96277 9.702Z" fill="#656565"/>
</svg>
