<svg width="19" height="16" viewBox="0 0 19 16" fill="none" xmlns="http://www.w3.org/2000/svg">
<path d="M5.80632 15.328C7.22361 15.3369 8.62857 15.0644 9.9397 14.5261C11.2508 13.9878 12.4421 13.1946 13.4443 12.1924C14.4464 11.1902 15.2397 9.99899 15.778 8.68786C16.3162 7.37672 16.5888 5.97176 16.5799 4.55447V4.05942C17.3146 3.52115 17.9505 2.8597 18.4594 2.1044C17.7676 2.40697 17.0356 2.60763 16.2862 2.70014C17.0807 2.22672 17.6769 1.48154 17.9643 0.602481C17.2239 1.04671 16.4119 1.35901 15.5646 1.52545C14.994 0.917437 14.2389 0.514426 13.4162 0.378775C12.5934 0.243124 11.7489 0.382394 11.0133 0.775038C10.2777 1.16768 9.69201 1.79181 9.34683 2.55085C9.00165 3.30989 8.91625 4.16153 9.10383 4.974C7.59858 4.90011 6.12576 4.51001 4.78128 3.8291C3.4368 3.14819 2.25082 2.19173 1.30055 1.02201C0.821378 1.85367 0.676139 2.83634 0.894239 3.77105C1.11234 4.70577 1.67748 5.52268 2.47524 6.05639C1.88673 6.03369 1.31184 5.87272 0.79711 5.58651V5.62847C0.79188 6.4976 1.08467 7.34227 1.62669 8.0217C2.16871 8.70113 2.92722 9.17429 3.77578 9.3623C3.22841 9.50952 2.65504 9.53245 2.09766 9.42942C2.34332 10.1706 2.81227 10.8177 3.4402 11.2819C4.06812 11.7461 4.82427 12.0046 5.60494 12.0221C4.27017 13.0966 2.61124 13.688 0.897797 13.7003C0.597374 13.6916 0.297655 13.6663 0 13.6247C1.73431 14.7297 3.74994 15.3123 5.80632 15.3029" fill="white"/>
</svg>
