<svg width="20" height="20" viewBox="0 0 20 20" fill="none" xmlns="http://www.w3.org/2000/svg">
<path d="M11.4528 0C11.6221 0 11.7915 0 11.9609 0C12.0025 0.0136958 12.0436 0.0313047 12.0862 0.0410875C12.7221 0.18685 13.173 0.5493 13.336 1.19105C13.433 1.57257 13.4995 1.96926 13.5176 2.36204C13.5744 3.60494 13.3644 4.82484 13.1466 6.0423C13.0878 6.371 13.0183 6.69775 12.9493 7.04699C13.0589 7.04699 13.1363 7.04699 13.2132 7.04699C14.3988 7.04699 15.584 7.04601 16.7697 7.04797C17.0238 7.04846 17.2783 7.0465 17.5309 7.06753C18.4709 7.14531 19.2918 7.9964 19.3535 8.9375C19.3853 9.42077 19.2698 9.86393 19.0089 10.2684C20.3091 11.1005 20.3473 12.9763 19.0089 13.8382C19.3427 14.3542 19.4455 14.9162 19.2928 15.513C19.1376 16.119 18.7533 16.5524 18.2041 16.8527C18.4806 17.3291 18.5761 17.8271 18.4655 18.35C18.2603 19.3165 17.4281 19.9915 16.4348 19.9949C14.7998 20.0008 13.1652 20.0032 11.5301 19.993C9.4701 19.9798 7.46493 19.6325 5.51214 18.977C5.38339 18.934 5.34863 18.8748 5.34863 18.7427C5.35255 15.2933 5.35255 11.844 5.34863 8.39456C5.34863 8.26983 5.3878 8.19402 5.48473 8.11918C6.25918 7.52194 7.00476 6.89242 7.65879 6.16214C8.21002 5.5473 8.67263 4.88207 8.95559 4.09407C9.28897 3.16471 9.64878 2.24465 10.0159 1.32801C10.1158 1.07855 10.2646 0.842293 10.4237 0.623649C10.6758 0.276362 11.0572 0.120817 11.4528 0Z" fill="#9E1936"/>
<path d="M11.4528 0C11.6221 0 11.7915 0 11.9609 0C12.0025 0.0136958 12.0436 0.0313047 12.0862 0.0410875C12.7221 0.18685 13.173 0.5493 13.336 1.19105C13.433 1.57257 13.4995 1.96926 13.5176 2.36204C13.5744 3.60494 13.3644 4.82484 13.1466 6.0423C13.0878 6.371 13.0183 6.69775 12.9493 7.04699C13.0589 7.04699 13.1363 7.04699 13.2132 7.04699C14.3988 7.04699 15.584 7.04601 16.7697 7.04797C17.0238 7.04846 17.2783 7.0465 17.5309 7.06753C18.4709 7.14531 19.2918 7.9964 19.3535 8.9375C19.3853 9.42077 19.2698 9.86393 19.0089 10.2684C20.3091 11.1005 20.3473 12.9763 19.0089 13.8382C19.3427 14.3542 19.4455 14.9162 19.2928 15.513C19.1376 16.119 18.7533 16.5524 18.2041 16.8527C18.4806 17.3291 18.5761 17.8271 18.4655 18.35C18.2603 19.3165 17.4281 19.9915 16.4348 19.9949C14.7998 20.0008 13.1652 20.0032 11.5301 19.993C9.4701 19.9798 7.46493 19.6325 5.51214 18.977C5.38339 18.934 5.34863 18.8748 5.34863 18.7427C5.35255 15.2933 5.35255 11.844 5.34863 8.39456C5.34863 8.26983 5.3878 8.19402 5.48473 8.11918C6.25918 7.52194 7.00476 6.89242 7.65879 6.16214C8.21002 5.5473 8.67263 4.88207 8.95559 4.09407C9.28897 3.16471 9.64878 2.24465 10.0159 1.32801C10.1158 1.07855 10.2646 0.842293 10.4237 0.623649C10.6758 0.276362 11.0572 0.120817 11.4528 0Z" fill="black" fill-opacity="0.2"/>
<path d="M0 9.25594C0.13903 8.90131 0.398489 8.77463 0.777395 8.7805C1.82502 8.79615 2.87313 8.78588 3.92124 8.78588C3.99272 8.78588 4.0637 8.78588 4.15182 8.78588C4.15182 12.0748 4.15182 15.3535 4.15182 18.6591C4.07153 18.6591 3.99614 18.6591 3.92076 18.6591C2.87264 18.6591 1.82502 18.6518 0.776906 18.663C0.393104 18.6674 0.119938 18.5427 0 18.1602C0 15.1921 0 12.224 0 9.25594Z" fill="#9E1936"/>
<path d="M0 9.25594C0.13903 8.90131 0.398489 8.77463 0.777395 8.7805C1.82502 8.79615 2.87313 8.78588 3.92124 8.78588C3.99272 8.78588 4.0637 8.78588 4.15182 8.78588C4.15182 12.0748 4.15182 15.3535 4.15182 18.6591C4.07153 18.6591 3.99614 18.6591 3.92076 18.6591C2.87264 18.6591 1.82502 18.6518 0.776906 18.663C0.393104 18.6674 0.119938 18.5427 0 18.1602C0 15.1921 0 12.224 0 9.25594Z" fill="black" fill-opacity="0.2"/>
</svg>
