<svg width="17" height="11" viewBox="0 0 17 11" fill="none" xmlns="http://www.w3.org/2000/svg">
<path d="M14.4024 4.80229C14.031 2.09786 11.526 0 8.5 0C6.1574 0 4.1225 1.26579 3.19345 3.26071C1.36765 3.76514 0 5.35857 0 7.07143C0 9.23764 1.90655 11 4.25 11H13.6C15.4751 11 17 9.59043 17 7.85714C16.9987 7.15284 16.7421 6.46924 16.2713 5.91551C15.8004 5.36178 15.1425 4.96984 14.4024 4.80229ZM9.35 7.07143V9.42857H7.65V7.07143H5.1L8.5 3.14286L11.9 7.07143H9.35Z" fill="#9E1936"/>
<path d="M14.4024 4.80229C14.031 2.09786 11.526 0 8.5 0C6.1574 0 4.1225 1.26579 3.19345 3.26071C1.36765 3.76514 0 5.35857 0 7.07143C0 9.23764 1.90655 11 4.25 11H13.6C15.4751 11 17 9.59043 17 7.85714C16.9987 7.15284 16.7421 6.46924 16.2713 5.91551C15.8004 5.36178 15.1425 4.96984 14.4024 4.80229ZM9.35 7.07143V9.42857H7.65V7.07143H5.1L8.5 3.14286L11.9 7.07143H9.35Z" fill="black" fill-opacity="0.2"/>
</svg>
