<svg width="15" height="15" viewBox="0 0 15 15" fill="none" xmlns="http://www.w3.org/2000/svg">
<path d="M8.62773 4.92344C9.18469 4.92344 9.71883 5.14469 10.1127 5.53851C10.5065 5.93234 10.7277 6.46648 10.7277 7.02344C10.7277 7.20909 10.8015 7.38714 10.9328 7.51841C11.064 7.64969 11.2421 7.72344 11.4277 7.72344C11.6134 7.72344 11.7914 7.64969 11.9227 7.51841C12.054 7.38714 12.1277 7.20909 12.1277 7.02344C12.1277 6.09518 11.759 5.20494 11.1026 4.54856C10.4462 3.89219 9.55599 3.52344 8.62773 3.52344C8.44208 3.52344 8.26404 3.59719 8.13276 3.72846C8.00148 3.85974 7.92773 4.03779 7.92773 4.22344C7.92773 4.40909 8.00148 4.58714 8.13276 4.71841C8.26404 4.84969 8.44208 4.92344 8.62773 4.92344Z" fill="white"/>
<path d="M8.62773 2.12363C9.92729 2.12363 11.1736 2.63988 12.0926 3.55881C13.0115 4.47774 13.5277 5.72407 13.5277 7.02363C13.5277 7.20928 13.6015 7.38733 13.7328 7.51861C13.864 7.64988 14.0421 7.72363 14.2277 7.72363C14.4134 7.72363 14.5914 7.64988 14.7227 7.51861C14.854 7.38733 14.9277 7.20928 14.9277 7.02363C14.9277 5.35277 14.264 3.75034 13.0825 2.56886C11.901 1.38738 10.2986 0.723633 8.62773 0.723633C8.44208 0.723633 8.26403 0.797383 8.13276 0.928658C8.00148 1.05993 7.92773 1.23798 7.92773 1.42363C7.92773 1.60928 8.00148 1.78733 8.13276 1.91861C8.26403 2.04988 8.44208 2.12363 8.62773 2.12363ZM14.7527 10.4606C14.7142 10.3483 14.6478 10.2475 14.5596 10.1679C14.4714 10.0883 14.3644 10.0325 14.2487 10.0056L10.0487 9.04663C9.93473 9.02078 9.81607 9.0239 9.70357 9.05569C9.59108 9.08748 9.48834 9.14693 9.40473 9.22863C9.30673 9.31963 9.29973 9.32663 8.84473 10.1946C7.33497 9.49894 6.12523 8.28423 5.43573 6.77163C6.32473 6.32363 6.33173 6.32363 6.42273 6.21863C6.50443 6.13502 6.56389 6.03228 6.59568 5.91979C6.62747 5.8073 6.63058 5.68864 6.60473 5.57463L5.64573 1.42363C5.61889 1.30792 5.56303 1.20094 5.48343 1.11277C5.40384 1.0246 5.30311 0.958134 5.19073 0.919633C5.02726 0.861245 4.85845 0.819043 4.68673 0.793633C4.50981 0.752609 4.32927 0.729162 4.14773 0.723633C3.29374 0.723633 2.47472 1.06288 1.87085 1.66675C1.26698 2.27062 0.927734 3.08964 0.927734 3.94363C0.931439 6.80153 2.06837 9.54131 4.08921 11.5622C6.11005 13.583 8.84984 14.7199 11.7077 14.7236C12.1306 14.7236 12.5493 14.6403 12.94 14.4785C13.3306 14.3167 13.6856 14.0795 13.9846 13.7805C14.2836 13.4815 14.5208 13.1265 14.6826 12.7359C14.8444 12.3452 14.9277 11.9265 14.9277 11.5036C14.9279 11.3255 14.9139 11.1476 14.8857 10.9716C14.8563 10.7978 14.8118 10.6268 14.7527 10.4606Z" fill="white"/>
</svg>
