<svg width="20" height="17" viewBox="0 0 20 17" fill="none" xmlns="http://www.w3.org/2000/svg">
<path d="M9.68363 2.65587L10 3.15303L10.3164 2.65587C11.2017 1.2646 12.7639 0.375 14.5455 0.375C17.3383 0.375 19.625 2.66165 19.625 5.45455C19.625 6.70535 19.0497 7.99127 18.1351 9.23847C17.2233 10.4818 15.9995 11.6522 14.7625 12.6643C13.5274 13.6749 12.2904 14.5184 11.3612 15.1098C10.8969 15.4052 10.5104 15.6371 10.2405 15.7948C10.1455 15.8503 10.065 15.8966 10.0007 15.9333C9.93632 15.8963 9.85569 15.8496 9.76054 15.7936C9.49059 15.6347 9.10399 15.4011 8.63968 15.1039C7.71032 14.509 6.47315 13.6611 5.23786 12.6476C4.0007 11.6326 2.77664 10.4605 1.86473 9.21905C0.949737 7.97342 0.375 6.69337 0.375 5.45455C0.375 2.66165 2.66165 0.375 5.45455 0.375C7.23608 0.375 8.79827 1.2646 9.68363 2.65587Z" stroke="#333333" stroke-width="0.75"/>
</svg>
