<svg width="20" height="20" viewBox="0 0 20 20" fill="none" xmlns="http://www.w3.org/2000/svg">
<path d="M12.0024 0.406608L12.0023 0.40657C11.9601 0.396882 11.9234 0.384436 11.8985 0.375665C11.8978 0.37544 11.8972 0.375218 11.8966 0.375H11.8964H11.8954H11.8944H11.8934H11.8924H11.8914H11.8904H11.8894H11.8884H11.8875H11.8865H11.8855H11.8845H11.8835H11.8825H11.8815H11.8805H11.8795H11.8785H11.8775H11.8765H11.8755H11.8746H11.8736H11.8726H11.8716H11.8706H11.8696H11.8686H11.8676H11.8666H11.8656H11.8646H11.8636H11.8626H11.8617H11.8607H11.8597H11.8587H11.8577H11.8567H11.8557H11.8547H11.8537H11.8527H11.8517H11.8507H11.8497H11.8488H11.8478H11.8468H11.8458H11.8448H11.8438H11.8428H11.8418H11.8408H11.8398H11.8388H11.8378H11.8368H11.8358H11.8349H11.8339H11.8329H11.8319H11.8309H11.8299H11.8289H11.8279H11.8269H11.8259H11.8249H11.8239H11.8229H11.822H11.821H11.82H11.819H11.818H11.817H11.816H11.815H11.814H11.813H11.812H11.811H11.81H11.8091H11.8081H11.8071H11.8061H11.8051H11.8041H11.8031H11.8021H11.8011H11.8001H11.7991H11.7981H11.7971H11.7961H11.7952H11.7942H11.7932H11.7922H11.7912H11.7902H11.7892H11.7882H11.7872H11.7862H11.7852H11.7842H11.7832H11.7823H11.7813H11.7803H11.7793H11.7783H11.7773H11.7763H11.7753H11.7743H11.7733H11.7723H11.7713H11.7703H11.7694H11.7684H11.7674H11.7664H11.7654H11.7644H11.7634H11.7624H11.7614H11.7604H11.7594H11.7584H11.7574H11.7565H11.7555H11.7545H11.7535H11.7525H11.7515H11.7505H11.7495H11.7485H11.7475H11.7465H11.7455H11.7445H11.7435H11.7426H11.7416H11.7406H11.7396H11.7386H11.7376H11.7366H11.7356H11.7346H11.7336H11.7326H11.7316H11.7306H11.7297H11.7287H11.7277H11.7267H11.7257H11.7247H11.7237H11.7227H11.7217H11.7207H11.7197H11.7187H11.7177H11.7168H11.7158H11.7148H11.7138H11.7128H11.7118H11.7108H11.7098H11.7088H11.7078H11.7068H11.7058H11.7048H11.7038H11.7029H11.7019H11.7009H11.6999H11.6989H11.6979H11.6969H11.6959H11.6949H11.6939H11.6929H11.6919H11.6909H11.69H11.689H11.688H11.687H11.686H11.685H11.684H11.683H11.682H11.681H11.68H11.679H11.678H11.6771H11.6761H11.6751H11.6741H11.6731H11.6721H11.6711H11.6701H11.6691H11.6681H11.6671H11.6661H11.6651H11.6641H11.6632H11.6622H11.6612H11.6602H11.6592H11.6582H11.6572H11.6562H11.6552H11.6542H11.6532H11.6522H11.6512H11.6503H11.6493H11.6483H11.6473H11.6463H11.6453H11.6443H11.6433H11.6423H11.6413H11.6403H11.6393H11.6383H11.6374H11.6364H11.6354H11.6344H11.6334H11.6324H11.6314H11.6304H11.6294H11.6284H11.6274H11.6264H11.6254H11.6245H11.6235H11.6225H11.6215H11.6205H11.6195H11.6185H11.6175H11.6165H11.6155H11.6145H11.6135H11.6125H11.6115H11.6106H11.6096H11.6086H11.6076H11.6066H11.6056H11.6046H11.6036H11.6026H11.6016H11.6006H11.5996H11.5986H11.5977H11.5967H11.5957H11.5947H11.5937H11.5927H11.5917H11.5907H11.5897H11.5887H11.5877H11.5867H11.5857H11.5848H11.5838H11.5828H11.5818H11.5808H11.5798H11.5788H11.5778H11.5768H11.5758H11.5748H11.5738H11.5728H11.5718H11.5709H11.5699H11.5689H11.5679H11.5669H11.5659H11.5649H11.5639H11.5629H11.5619H11.5609H11.5599H11.5589H11.558H11.557H11.556H11.555H11.554H11.553H11.552H11.551H11.55H11.549H11.548H11.547H11.546H11.5451H11.5441H11.5431H11.5421H11.5411H11.5401H11.5391H11.5381H11.5371H11.5361H11.5351H11.5341H11.5331H11.5322H11.5312H11.5302H11.5292H11.5282H11.5272H11.5262H11.5252H11.5242H11.5232H11.5222H11.5212H11.5202H11.5192H11.5183H11.5173H11.5163H11.5153H11.5143H11.5133H11.5123H11.5113H11.5103H11.5097C11.1518 0.488285 10.8939 0.614262 10.7272 0.843952L10.727 0.844293C10.5764 1.0512 10.4475 1.2589 10.3641 1.46738L10.3641 1.46744C9.99753 2.38251 9.63967 3.29768 9.30857 4.22069L9.30853 4.22081C9.00387 5.06924 8.50902 5.77553 7.93814 6.41232C7.26474 7.16423 6.50221 7.80761 5.72365 8.40848C5.72751 11.8231 5.72754 15.2377 5.72373 18.6522C7.61118 19.2757 9.54624 19.6052 11.5325 19.618C13.1657 19.6282 14.7989 19.6258 16.4335 19.6199H16.4335C17.2511 19.6171 17.9303 19.065 18.0986 18.2723C18.188 17.8496 18.1147 17.4458 17.8797 17.041L17.6866 16.7083L18.0241 16.5237C18.4984 16.2644 18.8044 15.9087 18.9295 15.4199C19.0551 14.9294 18.9739 14.4744 18.694 14.0419L18.4899 13.7263L18.8058 13.5229C19.9102 12.8117 19.8812 11.2719 18.8067 10.5843L18.4897 10.3815L18.6937 10.0652C18.9111 9.72822 19.0058 9.36495 18.9793 8.96214L18.9793 8.96203C18.9295 8.20238 18.2509 7.50339 17.5 7.44126L17.4998 7.44124C17.2877 7.42358 17.0734 7.42334 16.8411 7.42307C16.8172 7.42304 16.7932 7.42302 16.769 7.42297C15.8802 7.4215 14.9918 7.42169 14.1029 7.42187C13.8064 7.42193 13.5098 7.42199 13.2132 7.42199H13.2127H13.2123H13.2118H13.2113H13.2109H13.2104H13.21H13.2095H13.2091H13.2086H13.2082H13.2077H13.2073H13.2068H13.2064H13.2059H13.2055H13.205H13.2046H13.2041H13.2037H13.2032H13.2028H13.2023H13.2019H13.2014H13.201H13.2005H13.2001H13.1996H13.1992H13.1987H13.1983H13.1978H13.1974H13.1969H13.1965H13.196H13.1956H13.1951H13.1947H13.1942H13.1938H13.1933H13.1929H13.1924H13.1919H13.1915H13.191H13.1906H13.1901H13.1897H13.1892H13.1888H13.1883H13.1879H13.1874H13.187H13.1865H13.1861H13.1856H13.1852H13.1847H13.1842H13.1838H13.1833H13.1829H13.1824H13.182H13.1815H13.1811H13.1806H13.1802H13.1797H13.1792H13.1788H13.1783H13.1779H13.1774H13.177H13.1765H13.1761H13.1756H13.1751H13.1747H13.1742H13.1738H13.1733H13.1729H13.1724H13.1719H13.1715H13.171H13.1706H13.1701H13.1697H13.1692H13.1687H13.1683H13.1678H13.1674H13.1669H13.1664H13.166H13.1655H13.1651H13.1646H13.1642H13.1637H13.1632H13.1628H13.1623H13.1618H13.1614H13.1609H13.1605H13.16H13.1595H13.1591H13.1586H13.1582H13.1577H13.1572H13.1568H13.1563H13.1558H13.1554H13.1549H13.1545H13.154H13.1535H13.1531H13.1526H13.1521H13.1517H13.1512H13.1507H13.1503H13.1498H13.1493H13.1489H13.1484H13.1479H13.1475H13.147H13.1465H13.1461H13.1456H13.1451H13.1447H13.1442H13.1437H13.1433H13.1428H13.1423H13.1419H13.1414H13.1409H13.1405H13.14H13.1395H13.139H13.1386H13.1381H13.1376H13.1372H13.1367H13.1362H13.1357H13.1353H13.1348H13.1343H13.1338H13.1334H13.1329H13.1324H13.132H13.1315H13.131H13.1305H13.1301H13.1296H13.1291H13.1286H13.1281H13.1277H13.1272H13.1267H13.1262H13.1258H13.1253H13.1248H13.1243H13.1238H13.1234H13.1229H13.1224H13.1219H13.1214H13.121H13.1205H13.12H13.1195H13.119H13.1186H13.1181H13.1176H13.1171H13.1166H13.1161H13.1157H13.1152H13.1147H13.1142H13.1137H13.1132H13.1127H13.1123H13.1118H13.1113H13.1108H13.1103H13.1098H13.1093H13.1088H13.1084H13.1079H13.1074H13.1069H13.1064H13.1059H13.1054H13.1049H13.1044H13.1039H13.1034H13.103H13.1025H13.102H13.1015H13.101H13.1005H13.1H13.0995H13.099H13.0985H13.098H13.0975H13.097H13.0965H13.096H13.0955H13.095H13.0945H13.094H13.0935H13.093H13.0925H13.092H13.0915H13.091H13.0905H13.09H13.0895H13.089H13.0885H13.088H13.0875H13.087H13.0865H13.086H13.0855H13.085H13.0845H13.084H13.0834H13.0829H13.0824H13.0819H13.0814H13.0809H13.0804H13.0799H13.0794H13.0789H13.0784H13.0778H13.0773H13.0768H13.0763H13.0758H13.0753H13.0748H13.0742H13.0737H13.0732H13.0727H13.0722H13.0717H13.0711H13.0706H13.0701H13.0696H13.0691H13.0686H13.068H13.0675H13.067H13.0665H13.0659H13.0654H13.0649H13.0644H13.0639H13.0633H13.0628H13.0623H13.0618H13.0612H13.0607H13.0602H13.0596H13.0591H13.0586H13.0581H13.0575H13.057H13.0565H13.0559H13.0554H13.0549H13.0543H13.0538H13.0533H13.0527H13.0522H13.0517H13.0511H13.0506H13.0501H13.0495H13.049H13.0485H13.0479H13.0474H13.0468H13.0463H13.0458H13.0452H13.0447H13.0441H13.0436H13.0431H13.0425H13.042H13.0414H13.0409H13.0403H13.0398H13.0392H13.0387H13.0381H13.0376H13.0371H13.0365H13.036H13.0354H13.0349H13.0343H13.0338H13.0332H13.0326H13.0321H13.0315H13.031H13.0304H13.0299H13.0293H13.0288H13.0282H13.0276H13.0271H13.0265H13.026H13.0254H13.0249H13.0243H13.0237H13.0232H13.0226H13.022H13.0215H13.0209H13.0203H13.0198H13.0192H13.0186H13.0181H13.0175H13.0169H13.0164H13.0158H13.0152H13.0147H13.0141H13.0135H13.013H13.0124H13.0118H13.0112H13.0107H13.0101H13.0095H13.0089H13.0084H13.0078H13.0072H13.0066H13.006H13.0055H13.0049H13.0043H13.0037H13.0031H13.0025H13.002H13.0014H13.0008H13.0002H12.9996H12.999H12.9984H12.9979H12.9973H12.9967H12.9961H12.9955H12.9949H12.9943H12.9937H12.9931H12.9925H12.9919H12.9913H12.9907H12.9902H12.9896H12.989H12.9884H12.9878H12.9872H12.9866H12.986H12.9854H12.9848H12.9842H12.9835H12.9829H12.9823H12.9817H12.9811H12.9805H12.9799H12.9793H12.9787H12.9781H12.9775H12.9769H12.9763H12.9756H12.975H12.9744H12.9738H12.9732H12.9726H12.972H12.9713H12.9707H12.9701H12.9695H12.9689H12.9682H12.9676H12.967H12.9664H12.9657H12.9651H12.9645H12.9639H12.9632H12.9626H12.962H12.9614H12.9607H12.9601H12.9595H12.9588H12.9582H12.9576H12.9569H12.9563H12.9557H12.955H12.9544H12.9538H12.9531H12.9525H12.9519H12.9512H12.9506H12.9499H12.9493H12.4929L12.5814 6.97428C12.6036 6.86204 12.6255 6.75371 12.6469 6.64782C12.6935 6.4174 12.7377 6.19859 12.7774 5.97633L12.7774 5.97625C12.9961 4.75431 13.1976 3.57418 13.143 2.37932L12.0024 0.406608ZM12.0024 0.406608C12.529 0.527311 12.8507 0.803481 12.9726 1.28337L12.9726 1.28339M12.0024 0.406608L12.9726 1.28339M12.9726 1.28339C13.0645 1.64517 13.1263 2.01635 13.143 2.37916L12.9726 1.28339ZM5.72436 18.7601C5.72433 18.7602 5.7242 18.7593 5.72406 18.7574L5.72436 18.7601Z" stroke="#333333" stroke-width="0.75"/>
<path d="M0.771587 9.15548L0.771793 9.15549C1.52565 9.16675 2.28138 9.16465 3.0333 9.16256C3.28162 9.16187 3.52953 9.16118 3.77682 9.16097V9.17129V9.19056V9.20982V9.22909V9.24835V9.26762V9.28689V9.30615V9.32542V9.34468V9.36395V9.38321V9.40248V9.42174V9.44101V9.46027V9.47953V9.4988V9.51806V9.53732V9.55659V9.57585V9.59511V9.61438V9.63364V9.6529V9.67216V9.69143V9.71069V9.72995V9.74921V9.76847V9.78773V9.80699V9.82626V9.84552V9.86478V9.88404V9.9033V9.92256V9.94182V9.96108V9.98034V9.9996V10.0189V10.0381V10.0574V10.0766V10.0959V10.1152V10.1344V10.1537V10.1729V10.1922V10.2114V10.2307V10.25V10.2692V10.2885V10.3077V10.327V10.3463V10.3655V10.3848V10.404V10.4233V10.4425V10.4618V10.4811V10.5003V10.5196V10.5388V10.5581V10.5773V10.5966V10.6159V10.6351V10.6544V10.6736V10.6929V10.7121V10.7314V10.7506V10.7699V10.7892V10.8084V10.8277V10.8469V10.8662V10.8854V10.9047V10.9239V10.9432V10.9625V10.9817V11.001V11.0202V11.0395V11.0587V11.078V11.0972V11.1165V11.1358V11.155V11.1743V11.1935V11.2128V11.232V11.2513V11.2705V11.2898V11.309V11.3283V11.3476V11.3668V11.3861V11.4053V11.4246V11.4438V11.4631V11.4823V11.5016V11.5208V11.5401V11.5594V11.5786V11.5979V11.6171V11.6364V11.6556V11.6749V11.6941V11.7134V11.7326V11.7519V11.7712V11.7904V11.8097V11.8289V11.8482V11.8674V11.8867V11.9059V11.9252V11.9444V11.9637V11.983V12.0022V12.0215V12.0407V12.06V12.0792V12.0985V12.1177V12.137V12.1563V12.1755V12.1948V12.214V12.2333V12.2525V12.2718V12.291V12.3103V12.3296V12.3488V12.3681V12.3873V12.4066V12.4258V12.4451V12.4644V12.4836V12.5029V12.5221V12.5414V12.5606V12.5799V12.5992V12.6184V12.6377V12.6569V12.6762V12.6954V12.7147V12.734V12.7532V12.7725V12.7917V12.811V12.8302V12.8495V12.8688V12.888V12.9073V12.9265V12.9458V12.9651V12.9843V13.0036V13.0228V13.0421V13.0614V13.0806V13.0999V13.1191V13.1384V13.1577V13.1769V13.1962V13.2154V13.2347V13.254V13.2732V13.2925V13.3117V13.331V13.3503V13.3695V13.3888V13.4081V13.4273V13.4466V13.4658V13.4851V13.5044V13.5236V13.5429V13.5622V13.5814V13.6007V13.62V13.6392V13.6585V13.6778V13.697V13.7163V13.7355V13.7548V13.7741V13.7933V13.8126V13.8319V13.8511V13.8704V13.8897V13.9089V13.9282V13.9475V13.9668V13.986V14.0053V14.0246V14.0438V14.0631V14.0824V14.1016V14.1209V14.1402V14.1594V14.1787V14.198V14.2173V14.2365V14.2558V14.2751V14.2943V14.3136V14.3329V14.3522V14.3714V14.3907V14.41V14.4293V14.4485V14.4678V14.4871V14.5063V14.5256V14.5449V14.5642V14.5834V14.6027V14.622V14.6413V14.6606V14.6798V14.6991V14.7184V14.7377V14.7569V14.7762V14.7955V14.8148V14.8341V14.8533V14.8726V14.8919V14.9112V14.9305V14.9497V14.969V14.9883V15.0076V15.0269V15.0461V15.0654V15.0847V15.104V15.1233V15.1426V15.1618V15.1811V15.2004V15.2197V15.239V15.2583V15.2776V15.2968V15.3161V15.3354V15.3547V15.374V15.3933V15.4126V15.4319V15.4511V15.4704V15.4897V15.509V15.5283V15.5476V15.5669V15.5862V15.6055V15.6248V15.6441V15.6634V15.6826V15.7019V15.7212V15.7405V15.7598V15.7791V15.7984V15.8177V15.837V15.8563V15.8756V15.8949V15.9142V15.9335V15.9528V15.9721V15.9914V16.0107V16.03V16.0493V16.0686V16.0879V16.1072V16.1265V16.1458V16.1651V16.1844V16.2037V16.223V16.2423V16.2616V16.2809V16.3002V16.3195V16.3388V16.3582V16.3775V16.3968V16.4161V16.4354V16.4547V16.474V16.4933V16.5126V16.5319V16.5512V16.5706V16.5899V16.6092V16.6285V16.6478V16.6671V16.6864V16.7058V16.7251V16.7444V16.7637V16.783V16.8023V16.8216V16.841V16.8603V16.8796V16.8989V16.9182V16.9376V16.9569V16.9762V16.9955V17.0148V17.0342V17.0535V17.0728V17.0921V17.1115V17.1308V17.1501V17.1694V17.1888V17.2081V17.2274V17.2468V17.2661V17.2854V17.3047V17.3241V17.3434V17.3627V17.3821V17.4014V17.4207V17.4401V17.4594V17.4787V17.4981V17.5174V17.5367V17.5561V17.5754V17.5947V17.6141V17.6334V17.6528V17.6721V17.6914V17.7108V17.7301V17.7495V17.7688V17.7881V17.8075V17.8268V17.8462V17.8655V17.8849V17.9042V17.9236V17.9429V17.9622V17.9816V18.0009V18.0203V18.0396V18.059V18.0783V18.0977V18.117V18.1364V18.1557V18.1751V18.1945V18.2138V18.2332V18.2525V18.2719V18.2841C3.5296 18.2839 3.28195 18.2835 3.03402 18.283C2.28179 18.2815 1.52688 18.28 0.772881 18.2881L0.772605 18.2881C0.617161 18.2899 0.530804 18.2641 0.48188 18.2348C0.448719 18.215 0.40916 18.18 0.375 18.0961V18.0906V18.0733V18.0559V18.0385V18.0211V18.0037V17.9863V17.9689V17.9515V17.9341V17.9167V17.8993V17.882V17.8646V17.8472V17.8298V17.8124V17.795V17.7776V17.7602V17.7428V17.7254V17.708V17.6907V17.6733V17.6559V17.6385V17.6211V17.6037V17.5863V17.5689V17.5515V17.5341V17.5167V17.4993V17.482V17.4646V17.4472V17.4298V17.4124V17.395V17.3776V17.3602V17.3428V17.3254V17.308V17.2907V17.2733V17.2559V17.2385V17.2211V17.2037V17.1863V17.1689V17.1515V17.1341V17.1167V17.0994V17.082V17.0646V17.0472V17.0298V17.0124V16.995V16.9776V16.9602V16.9428V16.9254V16.9081V16.8907V16.8733V16.8559V16.8385V16.8211V16.8037V16.7863V16.7689V16.7515V16.7341V16.7168V16.6994V16.682V16.6646V16.6472V16.6298V16.6124V16.595V16.5776V16.5602V16.5428V16.5254V16.5081V16.4907V16.4733V16.4559V16.4385V16.4211V16.4037V16.3863V16.3689V16.3515V16.3341V16.3168V16.2994V16.282V16.2646V16.2472V16.2298V16.2124V16.195V16.1776V16.1602V16.1428V16.1255V16.1081V16.0907V16.0733V16.0559V16.0385V16.0211V16.0037V15.9863V15.9689V15.9515V15.9342V15.9168V15.8994V15.882V15.8646V15.8472V15.8298V15.8124V15.795V15.7776V15.7602V15.7428V15.7255V15.7081V15.6907V15.6733V15.6559V15.6385V15.6211V15.6037V15.5863V15.5689V15.5515V15.5342V15.5168V15.4994V15.482V15.4646V15.4472V15.4298V15.4124V15.395V15.3776V15.3602V15.3429V15.3255V15.3081V15.2907V15.2733V15.2559V15.2385V15.2211V15.2037V15.1863V15.1689V15.1516V15.1342V15.1168V15.0994V15.082V15.0646V15.0472V15.0298V15.0124V14.995V14.9776V14.9602V14.9429V14.9255V14.9081V14.8907V14.8733V14.8559V14.8385V14.8211V14.8037V14.7863V14.7689V14.7516V14.7342V14.7168V14.6994V14.682V14.6646V14.6472V14.6298V14.6124V14.595V14.5776V14.5603V14.5429V14.5255V14.5081V14.4907V14.4733V14.4559V14.4385V14.4211V14.4037V14.3863V14.369V14.3516V14.3342V14.3168V14.2994V14.282V14.2646V14.2472V14.2298V14.2124V14.195V14.1776V14.1603V14.1429V14.1255V14.1081V14.0907V14.0733V14.0559V14.0385V14.0211V14.0037V13.9863V13.969V13.9516V13.9342V13.9168V13.8994V13.882V13.8646V13.8472V13.8298V13.8124V13.795V13.7777V13.7603V13.7429V13.7255V13.7081V13.6907V13.6733V13.6559V13.6385V13.6211V13.6037V13.5864V13.569V13.5516V13.5342V13.5168V13.4994V13.482V13.4646V13.4472V13.4298V13.4124V13.3951V13.3777V13.3603V13.3429V13.3255V13.3081V13.2907V13.2733V13.2559V13.2385V13.2211V13.2037V13.1864V13.169V13.1516V13.1342V13.1168V13.0994V13.082V13.0646V13.0472V13.0298V13.0124V12.9951V12.9777V12.9603V12.9429V12.9255V12.9081V12.8907V12.8733V12.8559V12.8385V12.8211V12.8038V12.7864V12.769V12.7516V12.7342V12.7168V12.6994V12.682V12.6646V12.6472V12.6298V12.6125V12.5951V12.5777V12.5603V12.5429V12.5255V12.5081V12.4907V12.4733V12.4559V12.4385V12.4211V12.4038V12.3864V12.369V12.3516V12.3342V12.3168V12.2994V12.282V12.2646V12.2472V12.2298V12.2125V12.1951V12.1777V12.1603V12.1429V12.1255V12.1081V12.0907V12.0733V12.0559V12.0385V12.0212V12.0038V11.9864V11.969V11.9516V11.9342V11.9168V11.8994V11.882V11.8646V11.8472V11.8299V11.8125V11.7951V11.7777V11.7603V11.7429V11.7255V11.7081V11.6907V11.6733V11.6559V11.6385V11.6212V11.6038V11.5864V11.569V11.5516V11.5342V11.5168V11.4994V11.482V11.4646V11.4472V11.4299V11.4125V11.3951V11.3777V11.3603V11.3429V11.3255V11.3081V11.2907V11.2733V11.2559V11.2386V11.2212V11.2038V11.1864V11.169V11.1516V11.1342V11.1168V11.0994V11.082V11.0646V11.0473V11.0299V11.0125V10.9951V10.9777V10.9603V10.9429V10.9255V10.9081V10.8907V10.8733V10.856V10.8386V10.8212V10.8038V10.7864V10.769V10.7516V10.7342V10.7168V10.6994V10.682V10.6646V10.6473V10.6299V10.6125V10.5951V10.5777V10.5603V10.5429V10.5255V10.5081V10.4907V10.4733V10.456V10.4386V10.4212V10.4038V10.3864V10.369V10.3516V10.3342V10.3168V10.2994V10.282V10.2647V10.2473V10.2299V10.2125V10.1951V10.1777V10.1603V10.1429V10.1255V10.1081V10.0907V10.0734V10.056V10.0386V10.0212V10.0038V9.9864V9.969V9.95161V9.93422V9.91683V9.89944V9.88205V9.86466V9.84727V9.82988V9.81248V9.79509V9.7777V9.76031V9.74292V9.72553V9.70814V9.69075V9.67336V9.65596V9.63857V9.62118V9.60379V9.5864V9.56901V9.55162V9.53423V9.51684V9.49944V9.48205V9.46466V9.44727V9.42988V9.41249V9.3951V9.37771V9.36032V9.34292V9.33506C0.412451 9.26219 0.451942 9.22774 0.487064 9.20735C0.53726 9.1782 0.621815 9.15316 0.771587 9.15548Z" stroke="#333333" stroke-width="0.75"/>
</svg>
