<svg width="16" height="15" viewBox="0 0 16 15" fill="none" xmlns="http://www.w3.org/2000/svg">
<path d="M2.68675 3.61177C3.68411 3.61177 4.49263 2.80325 4.49263 1.80589C4.49263 0.808523 3.68411 0 2.68675 0C1.68938 0 0.880859 0.808523 0.880859 1.80589C0.880859 2.80325 1.68938 3.61177 2.68675 3.61177Z" fill="white"/>
<path d="M6.19827 4.98015V14.9992H9.30905V10.0446C9.30905 8.73719 9.555 7.47109 11.176 7.47109C12.7747 7.47109 12.7945 8.96581 12.7945 10.1271V15H15.907V9.5056C15.907 6.80667 15.3259 4.73254 12.1714 4.73254C10.6569 4.73254 9.64167 5.56368 9.22651 6.35025H9.18442V4.98015H6.19827ZM1.12891 4.98015H4.24464V14.9992H1.12891V4.98015Z" fill="white"/>
</svg>
