<svg width="12" height="12" viewBox="0 0 12 12" fill="none" xmlns="http://www.w3.org/2000/svg">
<path d="M11.994 9.06158C11.8877 9.87305 11.4904 10.6183 10.8758 11.1588C10.2613 11.6993 9.47141 11.9982 8.65301 12C3.88184 12 0 8.11816 0 3.34699C0.00180413 2.52859 0.300736 1.7387 0.841218 1.12416C1.3817 0.509628 2.12695 0.112269 2.93842 0.00596684C3.14528 -0.0169691 3.35406 0.0265832 3.5345 0.130308C3.71494 0.234032 3.85765 0.392537 3.94193 0.582834L5.14974 3.40107C5.21239 3.54736 5.23751 3.70697 5.22282 3.86543C5.20813 4.02389 5.15409 4.17616 5.06562 4.30844L4.06812 5.83473C4.5198 6.7514 5.26406 7.49143 6.1833 7.93789L7.69156 6.93438C7.8237 6.84531 7.97636 6.7914 8.13512 6.77773C8.29389 6.76406 8.45352 6.79109 8.59893 6.85627L11.4172 8.05807C11.6075 8.14235 11.766 8.28506 11.8697 8.4655C11.9734 8.64594 12.017 8.85472 11.994 9.06158ZM7.53533 1.40607C8.26706 1.60598 8.93402 1.99323 9.47039 2.52961C10.0068 3.06598 10.394 3.73294 10.5939 4.46467C10.6205 4.5674 10.6802 4.65848 10.7639 4.72369C10.8476 4.78891 10.9505 4.8246 11.0566 4.82521C11.0993 4.82513 11.1418 4.81906 11.1828 4.80719C11.2439 4.7912 11.3012 4.76317 11.3514 4.72475C11.4015 4.68634 11.4435 4.6383 11.4748 4.58346C11.5062 4.52861 11.5262 4.46807 11.5339 4.40536C11.5415 4.34266 11.5366 4.27907 11.5193 4.2183C11.279 3.32216 10.8071 2.50504 10.151 1.84898C9.49496 1.19292 8.67784 0.721026 7.7817 0.480681C7.71899 0.457836 7.65222 0.448298 7.58562 0.452675C7.51903 0.457052 7.45407 0.475247 7.3949 0.506101C7.33572 0.536956 7.28362 0.579795 7.2419 0.63189C7.20019 0.683985 7.16978 0.744195 7.15261 0.808686C7.13544 0.873178 7.13188 0.940539 7.14217 1.00648C7.15246 1.07242 7.17637 1.13549 7.21237 1.19169C7.24837 1.24788 7.29568 1.29597 7.35128 1.33288C7.40689 1.36979 7.46956 1.39471 7.53533 1.40607ZM7.03658 3.26286C7.44332 3.3742 7.81404 3.58957 8.11224 3.88776C8.41043 4.18596 8.6258 4.55668 8.73714 4.96342C8.76272 5.06667 8.82223 5.15833 8.90613 5.22371C8.99004 5.28909 9.09347 5.32439 9.19983 5.32396C9.24059 5.32436 9.28116 5.31828 9.32001 5.30594C9.38166 5.2906 9.43961 5.26306 9.49042 5.22492C9.54123 5.18679 9.58386 5.13884 9.6158 5.08393C9.64774 5.02901 9.66834 4.96824 9.67636 4.90522C9.68439 4.84221 9.67968 4.77822 9.66253 4.71705C9.51077 4.1459 9.21076 3.625 8.79288 3.20712C8.375 2.78924 7.8541 2.48923 7.28295 2.33747C7.22024 2.31463 7.15347 2.30509 7.08687 2.30947C7.02028 2.31384 6.95532 2.33204 6.89615 2.36289C6.83697 2.39375 6.78486 2.43659 6.74315 2.48868C6.70144 2.54078 6.67103 2.60099 6.65386 2.66548C6.63669 2.72997 6.63313 2.79733 6.64342 2.86327C6.65371 2.92921 6.67762 2.99229 6.71362 3.04848C6.74962 3.10468 6.79693 3.15276 6.85253 3.18967C6.90814 3.22658 6.97082 3.2515 7.03658 3.26286Z" fill="#333333"/>
</svg>
