<svg width="71" height="71" viewBox="0 0 71 71" fill="none" xmlns="http://www.w3.org/2000/svg">
<g filter="url(#filter0_d_1_351)">
<circle cx="35.5" cy="33.5" r="27.5" fill="white"/>
</g>
<path d="M41.6582 34.661L31.0547 40.8135C30.1548 41.3351 29 40.7035 29 39.652V27.3471C29 26.2972 30.1532 25.664 31.0547 26.1872L41.6582 32.3397C41.8629 32.4565 42.0331 32.6255 42.1514 32.8293C42.2698 33.0331 42.3321 33.2647 42.3321 33.5004C42.3321 33.7361 42.2698 33.9676 42.1514 34.1714C42.0331 34.3753 41.8629 34.5442 41.6582 34.661Z" fill="#9E1936"/>
<path d="M41.6582 34.661L31.0547 40.8135C30.1548 41.3351 29 40.7035 29 39.652V27.3471C29 26.2972 30.1532 25.664 31.0547 26.1872L41.6582 32.3397C41.8629 32.4565 42.0331 32.6255 42.1514 32.8293C42.2698 33.0331 42.3321 33.2647 42.3321 33.5004C42.3321 33.7361 42.2698 33.9676 42.1514 34.1714C42.0331 34.3753 41.8629 34.5442 41.6582 34.661Z" fill="black" fill-opacity="0.2"/>
<defs>
<filter id="filter0_d_1_351" x="0" y="0" width="71" height="71" filterUnits="userSpaceOnUse" color-interpolation-filters="sRGB">
<feFlood flood-opacity="0" result="BackgroundImageFix"/>
<feColorMatrix in="SourceAlpha" type="matrix" values="0 0 0 0 0 0 0 0 0 0 0 0 0 0 0 0 0 0 127 0" result="hardAlpha"/>
<feOffset dy="2"/>
<feGaussianBlur stdDeviation="4"/>
<feComposite in2="hardAlpha" operator="out"/>
<feColorMatrix type="matrix" values="0 0 0 0 0 0 0 0 0 0 0 0 0 0 0 0 0 0 0.15 0"/>
<feBlend mode="normal" in2="BackgroundImageFix" result="effect1_dropShadow_1_351"/>
<feBlend mode="normal" in="SourceGraphic" in2="effect1_dropShadow_1_351" result="shape"/>
</filter>
</defs>
</svg>
