<svg width="63" height="68" viewBox="0 0 63 68" fill="none" xmlns="http://www.w3.org/2000/svg">
<path d="M17.4538 64.3917V67.7235H16.7209V62.9922H17.2965L19.9527 66.4041V62.9989H20.6921V67.7235H20.0838L17.4538 64.3917Z" fill="white"/>
<path d="M24.291 67.7234V62.9921H25.0239V67.7234H24.291Z" fill="white"/>
<path d="M28.6214 67.7234V62.9987H29.3543V65.4305L31.5398 62.9921H32.3513L30.5198 65.0846L32.4562 67.7234H31.6381L30.0675 65.544L29.3543 66.2972V67.7234H28.6214Z" fill="white"/>
<path d="M36.8582 62.9921H37.4993L39.3308 67.7234H38.5586L38.0683 66.4374H36.2761L35.7923 67.7234H35.0135L36.8582 62.9921ZM37.9254 65.8845L37.1794 63.8521L36.4072 65.8845H37.9254Z" fill="white"/>
<path d="M46.2729 62.9921V67.7234H45.5335V65.6375H43.1906V67.7234H42.4577V62.9921H43.1906V64.9711H45.5335V62.9921H46.2729Z" fill="white"/>
<path d="M5.97434 66.0103C5.97434 66.0103 6.00056 65.9996 6.05038 65.9796C6.1002 65.9596 6.17624 65.9355 6.28113 65.9235C6.38339 65.9142 6.51843 65.9195 6.66133 65.9863C6.73082 66.021 6.80162 66.0691 6.86455 66.1358C6.92617 66.2026 6.97992 66.2854 7.01663 66.3815C7.09267 66.5725 7.09267 66.8209 6.98647 67.0452C6.8829 67.2723 6.67313 67.4539 6.43452 67.5607C6.19329 67.6729 5.92321 67.7143 5.6492 67.7223C5.51285 67.729 5.3647 67.7156 5.21917 67.6876C5.07365 67.6529 4.92681 67.5994 4.79046 67.518C4.6056 67.4045 4.45483 67.2402 4.35519 67.0573C4.25424 66.8743 4.2018 66.674 4.18738 66.4804C4.15853 66.0918 4.26735 65.7366 4.4273 65.4561C4.58987 65.1757 4.79964 64.9634 5.0081 64.8205C5.21655 64.6762 5.41714 64.5894 5.58365 64.54C5.74228 64.4666 5.94288 64.3905 6.19329 64.3491C6.44239 64.3077 6.75048 64.3344 7.04547 64.4799C7.33915 64.6242 7.59611 64.8699 7.82555 65.137C8.0576 65.4054 8.27524 65.6978 8.51516 65.9809C8.8639 66.3976 9.24148 66.7394 9.64136 66.9651C10.0399 67.1908 10.4477 67.307 10.7951 67.3671C10.8383 67.3751 10.8816 67.3831 10.9236 67.3898C10.9655 67.3951 11.0062 67.3991 11.0468 67.4031C11.1268 67.4111 11.2015 67.4232 11.2723 67.4272C11.4139 67.4325 11.5371 67.4445 11.6381 67.4432C11.84 67.4432 11.9514 67.4432 11.9514 67.4432C11.9514 67.4432 11.84 67.4619 11.6407 67.4966C11.5398 67.514 11.4165 67.5206 11.271 67.5353C11.1989 67.542 11.1215 67.5393 11.0389 67.542C10.997 67.542 10.955 67.5434 10.9118 67.5434C10.8685 67.5407 10.8239 67.538 10.778 67.5353C10.4123 67.5153 9.96519 67.4365 9.51418 67.2202C9.28868 67.112 9.06711 66.9665 8.85604 66.7942C8.64496 66.6219 8.4483 66.4203 8.26475 66.2026C8.01565 65.9075 7.80326 65.6057 7.59349 65.3399C7.48861 65.2064 7.38372 65.0822 7.27359 64.974C7.16609 64.8619 7.05072 64.7737 6.93403 64.7003C6.69804 64.5574 6.44239 64.5053 6.21164 64.5147C5.9809 64.524 5.77768 64.5707 5.61773 64.6188C5.46565 64.6909 5.28866 64.7991 5.11298 64.954C4.9373 65.1076 4.77079 65.3186 4.65018 65.575C4.53087 65.8314 4.4627 66.1412 4.50072 66.451C4.53743 66.7595 4.69606 67.0613 4.97007 67.2282C5.07103 67.2883 5.18247 67.331 5.29784 67.3604C5.41583 67.3844 5.53121 67.3991 5.65444 67.3991C5.8983 67.4005 6.13429 67.3764 6.33357 67.2976C6.53416 67.2229 6.69935 67.0987 6.79113 66.9384C6.88421 66.7808 6.9065 66.5939 6.86455 66.4376C6.84357 66.3602 6.80948 66.2894 6.76753 66.228C6.72426 66.1679 6.67182 66.1211 6.61676 66.0838C6.50532 66.0103 6.38601 65.9863 6.28899 65.9796C6.19066 65.9756 6.11331 65.9863 6.06218 65.997C6.00187 66.005 5.97434 66.0103 5.97434 66.0103Z" fill="white"/>
<path d="M55.8578 65.738C55.8578 65.738 55.8302 65.734 55.7778 65.7246C55.7253 65.7153 55.648 65.7099 55.5497 65.7166C55.4526 65.7273 55.3346 65.7567 55.2258 65.8341C55.1734 65.8742 55.1223 65.9236 55.0816 65.985C55.0423 66.0478 55.0108 66.1186 54.9925 66.1974C54.9571 66.3549 54.9859 66.5406 55.0855 66.6941C55.1839 66.8504 55.3543 66.9679 55.5575 67.0347C55.7594 67.1041 55.9967 67.1201 56.2406 67.1081C56.3638 67.1041 56.4792 67.0841 56.5946 67.056C56.7086 67.0213 56.8174 66.9746 56.9158 66.9105C57.1845 66.7329 57.3301 66.4257 57.355 66.1146C57.3812 65.8034 57.3012 65.4963 57.1714 65.2452C57.0403 64.9942 56.866 64.7899 56.6837 64.643C56.5028 64.4947 56.3206 64.3946 56.1659 64.3291C56.0033 64.2877 55.7988 64.2504 55.568 64.2504C55.3373 64.2504 55.0842 64.3131 54.8535 64.4653C54.7394 64.5428 54.628 64.6363 54.5244 64.7525C54.4195 64.8646 54.3186 64.9928 54.2189 65.1317C54.0197 65.4055 53.8191 65.7166 53.5818 66.0211C53.4074 66.2454 53.2186 66.4551 53.0141 66.6367C52.8096 66.817 52.5945 66.9719 52.373 67.0894C51.9298 67.3258 51.4867 67.4219 51.1222 67.4567C51.0763 67.4607 51.0318 67.466 50.9885 67.47C50.9452 67.4713 50.902 67.4727 50.8613 67.474C50.7787 67.4753 50.7014 67.4807 50.6293 67.4767C50.4838 67.4673 50.3605 67.466 50.2596 67.4526C50.059 67.4273 49.9475 67.4126 49.9475 67.4126C49.9475 67.4126 50.0603 67.4086 50.2609 67.3992C50.3618 67.3966 50.4838 67.3792 50.6253 67.3685C50.6961 67.3618 50.7709 67.3471 50.8495 67.3351C50.8889 67.3285 50.9295 67.3231 50.9715 67.3164C51.0121 67.3071 51.0554 67.2977 51.0986 67.2884C51.4434 67.2136 51.8459 67.0814 52.2353 66.8397C52.626 66.598 52.9892 66.2414 53.3209 65.8101C53.549 65.5176 53.7548 65.2172 53.9764 64.9394C54.1953 64.663 54.4431 64.4079 54.7303 64.2517C55.0187 64.0941 55.3268 64.0567 55.5759 64.0861C55.8276 64.1168 56.0308 64.1862 56.1921 64.253C56.3599 64.2971 56.5644 64.3745 56.7781 64.5108C56.9918 64.6456 57.2095 64.8486 57.3825 65.1224C57.5529 65.3961 57.6762 65.7473 57.6618 66.1359C57.6539 66.3296 57.6093 66.5312 57.5162 66.7195C57.4232 66.9065 57.2789 67.0774 57.0993 67.1976C56.9656 67.2844 56.8227 67.3445 56.6772 67.3845C56.5329 67.4179 56.3848 67.438 56.2485 67.4366C55.9758 67.4393 55.7031 67.4099 55.4579 67.3071C55.214 67.2096 54.9977 67.036 54.8863 66.8143C54.7722 66.594 54.7617 66.3469 54.8299 66.1533C54.864 66.0558 54.9138 65.9717 54.9728 65.9022C55.0331 65.8341 55.1013 65.7821 55.1695 65.7447C55.3084 65.6726 55.4435 65.6619 55.547 65.6659C55.6506 65.6739 55.728 65.6953 55.7791 65.7126C55.8315 65.7286 55.8578 65.738 55.8578 65.738Z" fill="white"/>
<path d="M31.8428 9.40789L31.5622 8.82699C31.4941 8.68544 31.2948 8.68544 31.2253 8.82699L30.9434 9.40789C30.9159 9.46398 30.8634 9.5027 30.8018 9.51205L30.1725 9.60553C30.0191 9.62823 29.9575 9.82053 30.069 9.93137L30.5239 10.3827C30.5685 10.4268 30.5881 10.4896 30.5776 10.5523L30.4701 11.1907C30.4439 11.3469 30.6052 11.4657 30.7428 11.3923L31.3053 11.0905C31.3603 11.0611 31.4259 11.0611 31.4796 11.0905L32.0421 11.3923C32.1797 11.4657 32.341 11.3469 32.3148 11.1907L32.2073 10.5523C32.1968 10.4909 32.2165 10.4268 32.261 10.3827L32.716 9.93137C32.8274 9.82053 32.7658 9.62823 32.6124 9.60553L31.9831 9.51205C31.9228 9.5027 31.869 9.46398 31.8428 9.40789Z" fill="white"/>
<path d="M33.58 27.9861H32.9573H30.1752C25.8828 27.9861 22.4033 31.5302 22.4033 35.9023V53.2399C22.4033 56.0375 24.438 58.4867 27.1716 58.7484C30.3089 59.0489 32.9573 56.533 32.9573 53.3975V31.0308H33.58C35.8258 31.0308 37.6469 32.8857 37.6469 35.1732V51.584C37.6469 53.4869 36.3804 55.0947 34.6603 55.5782C34.0192 55.7584 33.58 56.3607 33.58 57.0378C33.58 58.038 34.5135 58.7791 35.4601 58.512C38.4414 57.6721 40.6361 54.8838 40.6361 51.584V35.1732C40.6361 31.2031 37.4778 27.9861 33.58 27.9861ZM29.9681 53.3961C29.9681 54.6808 28.9415 55.7264 27.6803 55.7264C26.419 55.7264 25.3925 54.6808 25.3925 53.3961V35.9023C25.3925 33.2876 27.4259 31.147 29.9681 31.0361V53.3961Z" fill="white"/>
<path d="M21.1421 22.9409C21.1421 23.5832 21.365 24.1321 21.8108 24.5861C22.2591 25.0428 22.7993 25.2725 23.4312 25.2725H24.758V25.6424H23.4312C22.6996 25.6424 22.073 25.378 21.5512 24.8505C21.0333 24.323 20.7737 23.686 20.7737 22.9409V22.2505H24.4001V20.7628C24.4001 20.3061 24.2414 19.9149 23.9242 19.5917C23.6069 19.2685 23.2241 19.1069 22.7744 19.1069H21.1395V20.9979H20.7724V18.733H22.7744C23.3237 18.733 23.7931 18.932 24.1824 19.3286C24.5718 19.7252 24.7672 20.2033 24.7672 20.7628V22.6244H21.1395V22.9409H21.1421Z" fill="white"/>
<path d="M26.0398 22.0101C26.0398 22.0809 26.0648 22.1396 26.1146 22.1877C26.1644 22.2385 26.2247 22.2638 26.2942 22.2638H27.1988V22.6231H26.2942C26.1277 22.6231 25.9848 22.563 25.8655 22.4414C25.7488 22.3199 25.6911 22.1757 25.6911 22.0101V15.7484H26.0398V22.0101Z" fill="white"/>
<path d="M35.2873 22.2503L35.3201 22.2557H36.1683V22.6256H35.3201L35.2493 22.6202C35.105 22.6042 34.9713 22.5535 34.8494 22.4667V22.6296L34.6278 22.6243H27.143V22.2543H34.481V21.799V21.7362V21.4344H34.4862V21.1513C34.4797 20.8829 34.3827 20.6559 34.1939 20.4702C34.0051 20.2846 33.7796 20.1925 33.516 20.1925H28.829V17.3521C28.829 16.9007 28.9864 16.5175 29.2997 16.201C29.6104 15.8818 29.9867 15.7216 30.4298 15.7216H31.9559V16.0955H30.4298C30.0876 16.0955 29.7966 16.2183 29.558 16.4654C29.3154 16.7084 29.1948 17.0049 29.1948 17.3534V19.8199H33.5187C33.8831 19.8226 34.1939 19.9508 34.4508 20.2032C34.7052 20.4596 34.8376 20.772 34.8468 21.1433V21.8003C34.8625 21.9192 34.911 22.0206 34.9923 22.1075C35.0762 22.1929 35.1745 22.241 35.2873 22.2503ZM31.9572 17.9704V16.0941H31.594V17.9704H31.9572Z" fill="white"/>
<path d="M38.2879 22.2452H39.1781V22.6245H38.3207L38.2499 22.6191C38.1017 22.6031 37.9667 22.551 37.8448 22.4602V22.6231H36.1391V22.2439H37.4764V17.7075H37.8435V21.7284C37.8435 21.8593 37.8854 21.9755 37.9706 22.0743C38.0559 22.1758 38.1621 22.2332 38.2879 22.2452Z" fill="white"/>
<path d="M40.43 15.7296H40.7787V22.0047C40.7787 22.1743 40.721 22.3198 40.6043 22.4413C40.485 22.5629 40.3421 22.623 40.1756 22.623H39.1491V22.2637H40.1756C40.2451 22.2637 40.3041 22.2384 40.3539 22.1876C40.4038 22.1369 40.4287 22.0754 40.4287 22.0047V15.7296H40.43Z" fill="white"/>
<path d="M42.0465 25.6425H41.703V15.7205H42.0465V25.6425Z" fill="white"/>
<path d="M37.8449 16.5936H37.4726V17.073H37.8449V16.5936Z" fill="white"/>
<path d="M62.6185 24.084C62.0206 22.8875 58.6552 17.0411 51.1586 19.2805C51.1415 16.161 49.5906 13.1764 47.1048 11.4885C44.7384 9.88331 41.9196 9.63893 39.1441 10.7927C39.127 6.15086 37.0346 4.84083 35.0182 3.58021L34.9802 3.55885C34.0913 2.99798 33.1736 2.41441 32.4984 1.53972L31.3119 0L30.1372 1.54907C29.4751 2.42376 28.5744 3.00599 27.6855 3.57621C25.7032 4.84618 23.654 6.16021 23.654 10.8021C20.8824 9.64027 18.0545 9.88465 15.6802 11.4898C13.1905 13.1777 11.6395 16.1584 11.6225 19.2819C5.77912 17.5378 1.87087 20.6173 0.158637 24.0893L0 24.4098V58.7711V58.9887H4.84958L5.15768 58.5534H4.02493C3.45331 58.5534 2.9892 58.0807 2.9892 57.4984V25.1496C3.85581 23.5752 6.11999 20.7909 10.8267 22.2131C11.7064 22.4828 12.6766 22.3092 13.4317 21.739C14.1712 21.1781 14.6104 20.2767 14.6104 19.3326C14.6104 17.196 15.6566 15.1648 17.3347 14.0257C18.8805 12.9774 20.6832 12.8386 22.5409 13.6305C23.4587 14.0217 24.5009 13.9176 25.3177 13.3607C26.1424 12.7998 26.6327 11.8637 26.6327 10.8595C26.6327 7.84949 27.5124 7.28328 29.2981 6.13884C29.9169 5.73822 30.6354 5.27751 31.3263 4.66857C32.0356 5.28152 32.7698 5.74757 33.4017 6.14819L33.445 6.1749C35.2476 7.30198 36.1523 7.86686 36.1523 10.8608C36.1523 11.861 36.6387 12.7972 37.4633 13.362C38.288 13.9229 39.3303 14.0231 40.2349 13.6318C42.0717 12.8532 43.9203 12.9921 45.445 14.0271C47.1232 15.1662 48.1654 17.1986 48.1654 19.334C48.1654 20.2741 48.6099 21.1741 49.3611 21.7484C50.1045 22.3092 51.0786 22.4842 51.9583 22.2144C56.6952 20.7829 59.0105 23.7849 59.7919 25.1643V26.2687C60.9233 26.8002 61.9354 27.548 62.7811 28.4614V24.4112L62.6185 24.084Z" fill="white"/>
<path d="M19.7002 51.5851V35.1703C19.7002 33.708 20.0254 32.2992 20.6442 31.0292C21.0034 30.2987 21.4518 29.611 21.9985 28.9887L22.9634 27.9845H22.1047H18.97H5.94206V31.0292H17.4059C16.9864 32.2324 16.7517 33.5037 16.7176 34.8111C15.4865 33.9204 13.9683 33.4169 12.3308 33.4904C8.52483 33.6586 5.58545 36.9824 5.58545 40.8618V54.2625C5.58545 56.5795 7.29768 58.6066 9.56843 58.7615C12.0581 58.9311 14.1374 56.916 14.1374 54.4161V40.8925C14.1374 40.0686 13.5317 39.3287 12.7228 39.286C11.8601 39.2406 11.1482 39.939 11.1482 40.807V54.4161C11.1482 55.224 10.4272 55.8624 9.60645 55.7008C8.9955 55.5792 8.57727 54.9984 8.57727 54.364V40.6708C8.57727 38.2925 10.5543 36.3762 12.9221 36.5377C15.0814 36.6846 16.711 38.613 16.711 40.8164V58.5532H16.7019V58.9885H21.5514L21.8595 58.5532H20.736C20.1644 58.5532 19.7002 58.0805 19.7002 57.4982V51.5851Z" fill="white"/>
<path d="M62.9989 53.8886L62.5715 53.5721V54.4735C62.5715 55.1653 62.0209 55.7261 61.3417 55.7261H52.8697C52.1722 55.7261 51.6203 55.0771 51.7645 54.3413C51.8694 53.8098 52.3532 53.4279 52.8854 53.4266C58.3892 53.4186 62.8639 48.8542 62.8639 43.2468V35.1716C62.8639 31.2495 59.7632 28.0499 55.9271 27.9858C51.9808 27.9191 48.7517 31.3417 48.7517 35.3626V43.2535C48.7517 45.7533 50.831 47.7685 53.3194 47.5989C55.5888 47.444 57.3024 45.4182 57.3024 43.0999V35.3946C57.3024 34.5707 56.6967 33.8309 55.8878 33.7881C55.0251 33.7427 54.3132 34.4412 54.3132 35.3092V43.2535C54.3132 44.0614 53.5921 44.6997 52.7714 44.5381C52.1604 44.4166 51.7422 43.8357 51.7422 43.2014V35.173C51.7422 32.7946 53.7193 30.8783 56.087 31.0399C58.2463 31.1868 59.8747 33.1151 59.8747 35.3185V43.2468C59.8747 47.2116 56.7019 50.3258 52.8107 50.3819C50.4207 50.4166 48.5183 52.5345 48.7753 55.0277C48.989 57.0949 50.9569 58.7695 52.9969 58.7695H62.7865H63.0002V53.8886H62.9989Z" fill="white"/>
<path d="M50.628 66.4696C51.0038 66.4696 51.3084 66.1593 51.3084 65.7766C51.3084 65.3938 51.0038 65.0835 50.628 65.0835C50.2522 65.0835 49.9475 65.3938 49.9475 65.7766C49.9475 66.1593 50.2522 66.4696 50.628 66.4696Z" fill="white"/>
<path d="M11.2646 66.4696C11.6404 66.4696 11.945 66.1593 11.945 65.7766C11.945 65.3938 11.6404 65.0835 11.2646 65.0835C10.8888 65.0835 10.5841 65.3938 10.5841 65.7766C10.5841 66.1593 10.8888 66.4696 11.2646 66.4696Z" fill="white"/>
<path d="M47.5886 58.555C46.9317 58.555 46.3994 58.0128 46.3994 57.3437V31.0363V28.1064H43.4102H39.9648C39.9648 28.1064 41.3008 29.2108 41.9261 31.0363H43.4102V58.555V58.9903H48.2598L48.5679 58.555H47.5886Z" fill="white"/>
</svg>
