<svg width="14" height="17" viewBox="0 0 14 17" fill="none" xmlns="http://www.w3.org/2000/svg">
<path d="M2.625 4.47368C2.625 3.28719 3.08594 2.14929 3.90641 1.31031C4.72688 0.471333 5.83968 0 7 0C8.16032 0 9.27312 0.471333 10.0936 1.31031C10.9141 2.14929 11.375 3.28719 11.375 4.47368C11.375 5.66018 10.9141 6.79808 10.0936 7.63706C9.27312 8.47604 8.16032 8.94737 7 8.94737C5.83968 8.94737 4.72688 8.47604 3.90641 7.63706C3.08594 6.79808 2.625 5.66018 2.625 4.47368ZM7 7.15789C7.69619 7.15789 8.36387 6.87509 8.85616 6.37171C9.34844 5.86832 9.625 5.18558 9.625 4.47368C9.625 3.76179 9.34844 3.07905 8.85616 2.57566C8.36387 2.07227 7.69619 1.78947 7 1.78947C6.30381 1.78947 5.63613 2.07227 5.14384 2.57566C4.65156 3.07905 4.375 3.76179 4.375 4.47368C4.375 5.18558 4.65156 5.86832 5.14384 6.37171C5.63613 6.87509 6.30381 7.15789 7 7.15789ZM2.05012 11.9385C1.40012 12.6032 0.884521 13.3923 0.53276 14.2607C0.180999 15.1292 -3.3491e-05 16.06 4.64733e-09 17H1.75C1.75 15.5762 2.30312 14.2107 3.28769 13.204C4.27226 12.1972 5.60761 11.6316 7 11.6316C8.39239 11.6316 9.72775 12.1972 10.7123 13.204C11.6969 14.2107 12.25 15.5762 12.25 17H14C14.0001 15.5843 13.5895 14.2003 12.8204 13.0232C12.0512 11.846 10.9579 10.9285 9.67882 10.3867C8.3997 9.84494 6.9922 9.70319 5.6343 9.9794C4.2764 10.2556 3.02909 10.9374 2.05012 11.9385Z" fill="#fff"/>
</svg>
